<svg xmlns="http://www.w3.org/2000/svg" xmlns:xlink="http://www.w3.org/1999/xlink" width="550" height="350" viewBox="0 0 550 350"><defs><style>.a{fill:none;}.b{clip-path:url(#a);}.c{fill:#c8c6e0;}.d{fill:#eae8f3;}.e{fill:#9578b7;}.f{fill:#8067af;}.g{fill:#f6f5f9;}.h{fill:#876cb0;}.i{fill:#cdcbe2;}.j{fill:#6d53a2;}.k{fill:#bfbcdb;}.l{fill:#7458a5;}.m{fill:#a486c1;}.n{fill:#8c70b3;}.o{fill:#d1cfe5;}.p{fill:#4e1e88;}.q{fill:#c3bfdd;}.r{fill:#9d7dbb;}.s{fill:#f3f1f7;}.t{fill:#9f80bd;}.u{fill:#e1e1ee;}.v{fill:#6d4fa0;}.w{fill:#dcdceb;}.x{fill:#9a7dbb;}.y{fill:#e4e3ef;}.z{fill:#7e61aa;}.aa{fill:#614299;}.ab{fill:#d6d6e8;}.ac{fill:#552d8f;}.ad{fill:#b2a5d0;}.ae{fill:#461082;}.af{fill:#53298d;}.ag{fill:#481283;}.ah{fill:#b3a6d1;}.ai{fill:#573190;}.aj{fill:#9579b8;}.ak{fill:#674c9f;}.al{fill:#f0eef6;}.am{fill:#8567ae;}.an{fill:#e1e0ee;}.ao{fill:#ae99cb;}.ap{fill:#ab93c8;}.aq{fill:#7556a3;}.ar{fill:#6c4fa0;}.as{fill:#9879b8;}.at{fill:#8f71b3;}.au{fill:#5f3f97;}.av{fill:#a88cc4;}.aw{fill:#b8aed5;}.ax{fill:#efeef5;}.ay{fill:#e8e7f2;}.az{fill:#bab3d7;}.ba{fill:#d5d3e7;}.bb{fill:#9e7ebb;}.bc{fill:#4f2189;}.bd{fill:#bfbbdb;}.be{fill:#4c1b87;}.bf{fill:#65479b;}.bg{fill:#d1d1e6;}.bh{fill:#b8b5d7;}.bi{fill:#c0bddb;}.bj{fill:#c0c0dd;}.bk{fill:#e2e1ef;}.bl{fill:#e0dfed;}.bm{fill:#a185c1;}.bn{fill:#997ebc;}.bo{fill:#8e76b8;}.bp{fill:#7d63ac;}.bq{fill:#9982be;}.br{fill:#dadaea;}.bs{fill:#c2bfdc;}.bt{fill:#cfcde4;}.bu{fill:#7663ac;}.bv{fill:#6d57a5;}.bw{fill:#b5aed4;}.bx{fill:#7e6baf;}.by{fill:#a285c0;}.bz{fill:#8671b4;}.ca{fill:#937dbb;}.cb{fill:#8269b0;}.cc{fill:#5d3895;}.cd{fill:#55298f;}.ce{fill:#bebbda;}.cf{fill:#dddcec;}.cg{fill:#66499f;}.ch{fill:#6f54a4;}.ci{fill:#7b60aa;}.cj{fill:#a58ec5;}.ck{fill:#9f87c1;}.cl{fill:#5f3d97;}.cm{fill:#b19fce;}.cn{fill:#ac9fcd;}.co{fill:#572f90;}.cp{fill:#5e3c97;}.cq{fill:#b0a2cf;}.cr{fill:#aa95c9;}.cs{fill:#b5acd3;}.ct{fill:#a48dc5;}.cu{fill:#ab96c9;}.cv{fill:#c4c4df;}.cw{fill:#cccce4;}.cx{fill:#aeabd2;}.cy{fill:#a8a3ce;}.cz{fill:#aea6d0;}.da{fill:#b4b3d5;}.db{fill:#b7b5d6;}.dc{fill:#b8b7d8;}.dd{fill:#d9d9ea;}.de{fill:#d0cfe5;}.df{fill:#8d80bb;}.dg{fill:#9683be;}.dh{fill:#958ec3;}.di{fill:#a59ecc;}.dj{fill:#a599c9;}.dk{fill:#9f8cc2;}.dl{fill:#c6c5df;}.dm{fill:#7f72b3;}.dn{fill:#796fb2;}.do{fill:#6f59a7;}.dp{fill:#7463ac;}.dq{fill:#867ab8;}.dr{fill:#826fb2;}.ds{fill:#9687bf;}.dt{fill:#7862ab;}.du{fill:#9885bf;}.dv{fill:#afa5d0;}.dw{fill:#b5b2d6;}.dx{fill:#c0bfdc;}.dy{fill:#cdcee4;}.dz{fill:#a89aca;}.ea{fill:#a595c7;}.eb{fill:#bab9da;}.ec{fill:#9e96c8;}.ed{fill:#a7a4cd;}.ee{fill:#a29fcc;}.ef{fill:#a29eca;}.eg{fill:#a9a6cf;}.eh{fill:#b2b1d5;}.ei{fill:#9590c3;}.ej{fill:#887fbb;}.ek{fill:#9c91c5;}.el{fill:#a2a0cb;}.em{fill:#9997c7;}.en{fill:#a3a2cd;}.eo{fill:#9b94c6;}.ep{fill:#afacd2;}.eq{fill:#8c88bf;}.er{fill:#7f76b5;}.es{fill:#827bb9;}.et{fill:#7866ad;}.eu{fill:#7b6fb1;}.ev{fill:#8c7eba;}.ew{fill:#877bb8;}.ex{fill:#9e90c4;}.ey{fill:#b4b1d5;}.ez{fill:#9591c4;}.fa{fill:#8c82bc;}.fb{fill:#9693c5;}.fc{fill:#7e70b2;}</style><clipPath id="a"><rect class="a" width="550" height="350"/></clipPath></defs><title>trianglify-lowres</title><g class="b"><path class="c" d="M245.08-10.91h67c1.05,1.3.86,2.82.68,4.3C311.33,5.61,310,17.83,307.82,30a4.39,4.39,0,0,1-1.89,1.9c-13.62,3.15-27.44,5.25-41.17,7.87-7.94,1.51-8.08,1.52-8.1,9.55,0,10.32,0,20.64,0,31,0,2.46.29,5-1.56,7.13a6.67,6.67,0,0,1-4.72,1.16c-13.82-1-27.67-1.57-41.52-2A10.91,10.91,0,0,1,203.66,85c-1.84-1.37-1.46-3.27-1-5,3.72-13.65,7.26-27.35,11.31-40.91a5.22,5.22,0,0,1,1.3-2.11,4.52,4.52,0,0,1,1.43-.89c7.35-1.55,14.57.45,21.84.91,3.15.2,6.33.31,9.45.77,3.58.53,4.37-.88,3.8-4.17-1.61-9.19-3.64-18.29-5.22-27.48-.67-3.94-1.34-7.88-2.1-11.81C244.15-7.45,243.7-9.3,245.08-10.91Z"/><path class="d" d="M111.08-10.91h1a5.4,5.4,0,0,1,2.11,3.22c.93,8.13,2.79,16.18,2.06,24.44-.48,2.05-2,3.39-3.35,4.82C97.71,37.31,81.15,51.64,66,67.42a9.43,9.43,0,0,1-4.09,2.75c-14.36,2.21-28.6,5.15-43.1,6.36C6.47,77.18-5.73,75.14-18,74.42a9,9,0,0,1-3.8-1.11c-3-2.5-.32-3.7,1.31-4.8A187.28,187.28,0,0,1-2.45,58.05c7.75-4.11,14.88-9.37,23.16-12.47.39-.27.81-.51,1.22-.74C32,37.78,42.05,30.64,52,23.3,68.3,13.27,85,3.77,101.3-6.31A38.69,38.69,0,0,1,111.08-10.91Z"/><path class="e" d="M576.08,35.09v50c-1.41,1.33-3.22,1.67-5,2q-20.3,4.13-40.57,8.29c-2.36.48-4.92,1.51-7-.8a9.31,9.31,0,0,1-1-5.8c1.73-15,.52-30.12.88-45.18a38.17,38.17,0,0,1,.48-5.94,4.88,4.88,0,0,1,.83-1.77,4.79,4.79,0,0,1,1.7-1c15-.92,30-2,45.08-1.47A6.71,6.71,0,0,1,576.08,35.09Z"/><path class="f" d="M251.08,364.09h-47c-1.39-1.56-1.14-3.37-.77-5.17,1.86-9,3.32-18.16,5.79-27.07,2-3.18,5.29-5,8.11-7.28,14.2-11.53,28.3-23.19,42.69-34.5,1.76-1.38,3.73-4,6.14-.63.83,6.1-.3,12.17-.6,18.22-.38,7.55-.52,15.18-2,22.64-2.85,10.19-6.59,20.1-9.83,30.17A8.17,8.17,0,0,1,251.08,364.09Z"/><path class="g" d="M-23.92,43.09c0-17,.06-34-.07-51,0-2.51.56-3.1,3.07-3.07,14.33.14,28.66.07,43,.07,1.48,1.58,1.66,3.57,1.67,5.57.09,15.1.06,30.19,0,45.29a10.7,10.7,0,0,1-1.71,6.13h0c-6.15,2.53-12.44.92-18.67.61C-3,46.38-9.48,45.65-16,45.45-18.72,45.37-21.63,45.08-23.92,43.09Z"/><path class="h" d="M210.08,331.09c-1,9.85-3.93,19.34-5.53,29.08-.22,1.3-.32,2.61-.47,3.92h-56c-2.25-2.94-2.17-6.5-2.56-9.89-.83-7.32-2.66-14.54-2.44-22a3.89,3.89,0,0,1,1-1.59,5,5,0,0,1,1.77-.76c11.93-1,23.87-.27,35.8-.45,7.3-.11,14.6-.07,21.9,0C205.83,329.44,208.24,329.2,210.08,331.09Z"/><path class="i" d="M-23.92,184.09v-18c1.54-3.11,4.49-4.88,6.91-7.1,8-7.32,15.83-14.72,24.2-21.58a4.43,4.43,0,0,1,2.92,0c13.13,8.35,26.39,16.52,39.45,25,1.52,1,3.22,1.88,2.94,4.17-1.65,2.64-4.58,3.1-7.16,4q-13.55,4.69-27,9.62c-12,1.79-24.1,3-36.09,4.95C-19.93,185.49-22.09,185.72-23.92,184.09Z"/><path class="j" d="M343.08,364.09h-8c-3.57-2-5.75-5.43-8.46-8.27-12-12.54-23.37-25.57-35.06-38.37a2.48,2.48,0,0,1,1.05-2.08c3-1.73,6.36-1.91,9.62-2.35,13.5-1.8,26.93-4.07,40.42-5.95,2.14-.29,4.27-.66,6.41,0a3.81,3.81,0,0,1,1.47,1,7.42,7.42,0,0,1,.73,5.28c-2.14,15.39-4.22,30.78-6.48,46.14A8,8,0,0,1,343.08,364.09Z"/><path class="k" d="M307.07,30.08c.66-13.78,3.13-27.35,5-41h44a4.91,4.91,0,0,1,1.15,4.17c-1.59,10.16-1.11,20.53-3.07,30.66a4.84,4.84,0,0,1-.91,1.59c-2.19,1.8-4.87,1.89-7.5,2.22-10.85,1.38-21.74,2.4-32.6,3.59C311,31.56,308.82,31.87,307.07,30.08Z"/><path class="l" d="M292.08,316.1v2c1.91,1.11,2.46,3.05,3,5,3.18,11.92,6.59,23.77,9.85,35.66.48,1.75,1.1,3.53.17,5.35h-54q5.49-16.5,11-33c3.16-3.33,7.56-4.57,11.45-6.62,5.67-3,11.42-5.83,17.16-8.68l.74-.05Z"/><path class="m" d="M-23.92,357.09v-35c1-2,2.9-2.54,4.77-3.26C-9.41,315.1.6,312.14,10.37,308.5c1.77-.66,3.71-1.78,5.52.09,1.73,6,.92,12.16.27,18.19-.95,8.72-2.24,17.39-2.59,26.18-.12,3.25-.67,6.36-4.51,7.42-9.9,1-19.65-.65-29.44-1.71A6.2,6.2,0,0,1-23.92,357.09Z"/><path class="n" d="M524.08,95.09c15.53-3.12,31.07-6.2,46.59-9.42a28.42,28.42,0,0,1,5.41-.58v9c-2.85,4.89-7.81,7.54-11.88,11.12q-14.73,13-30,25.38a4.61,4.61,0,0,1-1.43.24c-10.49-3.92-20-9.84-29.7-15.23a2.22,2.22,0,0,1-.43-1.36c5.66-7.69,13.31-13.23,20.7-19Z"/><path class="o" d="M245.08-10.91c2.85,15.38,5.65,30.78,8.59,46.15.69,3.62.54,4.81-4,4.39-11.16-1-22.27-3-33.55-2.55a4.17,4.17,0,0,1-1.31-3.61c.81-12.43,1.44-24.86,2-37.3.13-2.87.68-6.08,4.33-7.08Z"/><path class="p" d="M505.08,364.09h-13c-5-7.47-7.88-16-12.12-23.93a28.32,28.32,0,0,1-2.5-6,3.39,3.39,0,0,1,.14-1.58,3.18,3.18,0,0,1,1.81-1.55c19.4-4.48,38.64-9.62,58-14.43,3-.76,6-2,9.26-1.16a2.08,2.08,0,0,1,1.08,1.93c-3.81,6.46-9.77,11.09-14.54,16.75-7.67,9.1-15.85,17.77-23.91,26.54A19.06,19.06,0,0,1,505.08,364.09Z"/><path class="q" d="M-23.92,184.09c11.55-1.46,23.12-2.79,34.63-4.48,2.82-.42,5.58-.35,8.36-.53l.64.65a8.42,8.42,0,0,1,.68,4.82c-.82,12-1.45,24-1.73,36a27.3,27.3,0,0,1-1.49,9.23,3.71,3.71,0,0,1-1,1.27c-1.27.63-2.17-.17-3.13-.82-10.56-7.1-20.79-14.68-31.42-21.69-2.19-1.45-4.37-3-5.55-5.5Z"/><path class="r" d="M64.08,364.09h-53a3.24,3.24,0,0,1-.67-3.59c4.76-5.18,10.54-9.14,16.12-13.32,13.71-10.29,27.17-20.91,40.81-31.3,2-1.51,3.75-4.75,7.22-2.57a3.79,3.79,0,0,1,.47,1.53c-2.55,14.94-5.45,29.81-8.36,44.68C66.32,361.35,66,363.15,64.08,364.09Z"/><path class="s" d="M22.07,46.08q0-28.5,0-57h34a5.07,5.07,0,0,1,1.15,4.19C56.14,2.2,55.14,11.13,53.82,20a7.52,7.52,0,0,1-1.74,4.07c-3.19,4.1-7.93,6.25-11.93,9.31C34.31,37.87,28.12,41.88,22.07,46.08Z"/><path class="t" d="M576.08,35.09c-16.69-.73-33.33,1.15-50,1-1.38-1.85-.63-3.84-.25-5.74C528.29,18,531.29,5.79,534-6.49a8.47,8.47,0,0,1,2.09-4.42h8C550.71-7,554.3-.25,559.13,5.3c4.23,4.84,8.3,9.86,12.44,14.78a29.22,29.22,0,0,1,4.51,7Z"/><path class="u" d="M156.08-10.91h11a5.84,5.84,0,0,1,1.55,4.07c0,14.83.72,29.67-.38,44.48-.88,2.48-2.86,2.75-4.83,1.86-15.51-7-31.67-12.5-46.79-20.38a2.65,2.65,0,0,1-.85-1.21,4.63,4.63,0,0,1,2.31-3.62C130.71,5.83,142.86-3.35,156.08-10.91Z"/><path class="v" d="M576.08,186.09v17c-3.83,5.43-9.19,9.37-13.88,13.94-4.46,4.37-9.28,8.4-13.71,12.84a7.68,7.68,0,0,1-4.62,2.66,1.84,1.84,0,0,1-1.34-.69,4.73,4.73,0,0,1-.69-1.43q-5.93-23.9-11.29-47.92a6.92,6.92,0,0,1-.17-3.44,2.44,2.44,0,0,1,1.81-1.62c13.52,1.15,26.67,4.53,40,6.53A6.81,6.81,0,0,1,576.08,186.09Z"/><path class="w" d="M167.07,39.08q0-25,0-50h51c1.44,2.89-.44,4.9-2.25,6.41C205.65,4,197,14.2,187,22.81c-6.06,5.18-11.24,11.27-17.1,16.66a3.24,3.24,0,0,1-2.68.83.82.82,0,0,1-.32-.79C166.92,39.23,167,39.08,167.07,39.08Z"/><path class="x" d="M74.08,314.09v-1a1.15,1.15,0,0,1,.42-1.58,4.87,4.87,0,0,1,1.71-.68c8.9-.74,17.82-.26,26.73-.33,4.75.61,9.59-.46,14.31.69,2.37,1.4,1.57,3.47.9,5.3-5.42,14.69-10.87,29.37-16.51,44a9.09,9.09,0,0,1-2.55,3.64h-8c-1.76-1.9-2.43-4.36-3.1-6.7-3.66-12.71-8.52-25-12.57-37.6C74.8,317.9,75.35,315.78,74.08,314.09Z"/><path class="y" d="M-22.93,72.08c14,1.64,27.93,3.09,42,3a2.64,2.64,0,0,1-.28,2.38c-3.26,17.44-5.26,35.08-8.13,52.58-.32,2-.38,4-1.74,5.61-3.45,1.5-3.78-1.71-4.66-3.41C-.62,122.83-5.34,113.32-10,103.79c-3.79-7.74-7.15-15.69-11.25-23.28-1.28-2.37-1.52-5-2.66-7.42v-1C-23.59,71.6-23.26,71.6-22.93,72.08Z"/><path class="z" d="M533.08,130.09h1c7.56-.77,14.74,1.62,21.92,3.16,6.71,1.44,13.86,1.35,20.09,4.85v12c-4.39,4.93-10.52,7.4-15.83,11-7.39,5-15,9.8-22.45,14.67-2.06,1.33-4.43,3.61-6.75.13a120.19,120.19,0,0,1-.09-25.72,114.05,114.05,0,0,0,.36-16.32C531.09,132.23,531.42,130.85,533.08,130.09Z"/><path class="aa" d="M403.08,364.09h-56c-.68-2.54,1.16-4,2.48-5.62q13.65-16.52,27.23-33.09c1.46-1.77,2.81-3.81,5.52-3.82a3.83,3.83,0,0,1,2.5,2.27c6.05,12,12.89,23.63,18.54,35.86C403.89,361.19,404.3,362.69,403.08,364.09Z"/><path class="m" d="M536.08-10.91c-1,10.58-4.82,20.57-6.56,31-.89,5.37-2.28,10.66-3.45,16h-1a2.46,2.46,0,0,1-2.38.07c-12.13-6-24.74-11-36.47-17.76-1-2.34.83-3.37,2.24-4.37C499.42,6.28,510.56-1.21,521.6-8.83c1.39-1,3.18-1,4.48-2.08Z"/><path class="ab" d="M169.07,39.08a272,272,0,0,1,19.8-19.51c9.1-8.21,17.31-17.39,26.62-25.41,1.53-1.32,2.91-2.78,2.59-5.07h3c-2.33,1.79-2.85,4.58-2.88,7.07-.14,13.68-1.18,27.3-2.13,40.92h0a9,9,0,0,1-4.66,1.59c-11.46.11-22.85,1.39-34.29,2C174.38,40.83,171.41,41.3,169.07,39.08Z"/><path class="ac" d="M478.07,333.08v1c-7,10.51-14,21-23,30h-13c-3-4.48-1.71-9.7-2.25-14.54-1.05-9.39-.42-18.89-.31-28.35a7,7,0,0,1,1-3.79c1.73-1.79,3.66-1.14,5.47-.28,9.1,4.31,18.46,8.05,27.61,12.24C475.43,330.19,477.3,331,478.07,333.08Z"/><path class="ad" d="M389.08-10.91h58A3.12,3.12,0,0,1,447.4-7c-4.77,2.91-10.11,1.82-15,1.33-11.95-1.17-23.89-.56-35.83-.8a37.42,37.42,0,0,1-5.09-.41C405.05,5.71,416.6,19.44,429.4,32c1.74,1.71,4.53,3.12,3.51,6.45-1.4.88-2.88.62-4.34.28-13.07-3-26.09-6.26-39.13-9.44-1.73-.42-3.6-.77-4.85-2.31-1.06-8.82.85-17.49,1.33-26.24.15-2.63.56-5.28.9-7.91A5.9,5.9,0,0,1,389.08-10.91Z"/><path class="ae" d="M547.07,318.08v-2a2.6,2.6,0,0,1,1.27-.87c3.17-.51,5.72,1.32,8.46,2.34,5,1.83,9.72,4.15,14.67,6,1.89.71,3.62,1.6,4.6,3.51v20c-4.83,6.14-9.39,12.54-16,17h-12a7.16,7.16,0,0,1-1.63-5.07c-.2-12.7.11-25.41-.19-38.12A5,5,0,0,1,547.07,318.08Z"/><path class="af" d="M576.08,270.09v25c-3.13,5.14-8.83,7.25-13.11,11-3.06,2.71-6.64,4.84-10,7.29-1.57,1.17-3.19,2.39-5.37,1.53a4.12,4.12,0,0,1-.76-1.47c-1.35-7.5.46-14.92.8-22.35.43-9.43.64-18.92,2.21-28.28a3.33,3.33,0,0,1,1.47-2C560.17,262.39,568.66,264.8,576.08,270.09Z"/><path class="ag" d="M547.07,318.08c1.49,4.16,1,8.49,1,12.76,0,11.08,0,22.16,0,33.25h-43c8.25-10.75,18.09-20.09,26.92-30.34C536.72,328.27,541.16,322.45,547.07,318.08Z"/><path class="ah" d="M-23.92,272.09v-10a13.3,13.3,0,0,1,4.37-4.67C-9.25,249.82.82,241.93,11,234.13c1.86-1.42,3.74-3.63,6.58-1.72,1.39,2.28,1,4.83,1.12,7.31.41,10.66-.46,21.28-1,31.91a3.27,3.27,0,0,1-.57,1.77,4.5,4.5,0,0,1-1.68.87c-9.94.43-19.85-1-29.8-.59C-17.57,273.83-21,274.46-23.92,272.09Z"/><path class="ai" d="M442.08,317.09c-1.61,1.48-.92,3.43-1,5.18-.55,14,.63,27.88,1,41.82h-39a7,7,0,0,0-1-4c.6-2.53,2.26-4.36,3.93-6.26,10-11.36,20.22-22.55,29.85-34.23,1.27-1.54,2.33-3.29,4.37-4C441.26,315.59,442.28,315.56,442.08,317.09Z"/><path class="aj" d="M99.08,364.09q8.48-23,17-45.92c.74-2,1.37-4.06,2-6.08,1.8-1.3,3.29-.12,4.47.89,6.56,5.62,14,10.18,20.35,16a3.35,3.35,0,0,1,1.19,2.12c0,.32,0,.65,0,1-2.23,5-7,7.46-10.81,10.84-7.05,6.31-14.29,12.43-21.4,18.68-1.45,1.28-3.23,1.6-4.79,2.48Z"/><path class="ak" d="M382.07,322.08c-6.52,5.42-11,12.61-16.4,19-6.37,7.53-12.41,15.33-18.59,23h-4c.65-11.73,3-23.25,4.44-34.87.89-7,1.71-14.09,2.56-21.13a3.43,3.43,0,0,1,3.33,0c9.4,4.36,19.21,7.79,28.41,12.59A1.31,1.31,0,0,1,382.07,322.08Z"/><path class="al" d="M52.08,24.09C53.2,14.2,54.24,4.3,55.54-5.56a50.75,50.75,0,0,0,.54-5.35h55C94.73-1.07,78.42,8.83,62,18.55,58.75,20.48,56.06,23.47,52.08,24.09Z"/><path class="am" d="M576.08,138.09c-10.54-.69-20.63-3.89-31-5.53-3.71-.59-7.53-.81-11-2.48,4.23-5.87,10.5-9.49,15.8-14.16,8.53-7.51,17.45-14.58,26.21-21.83Z"/><path class="an" d="M-23.92,73.09c5.63,8.84,9.45,18.6,14.11,27.93,5.86,11.74,11.17,23.76,17.88,35.06.28,1.08-.43,1.38-1.25,1.6-2.4.94-4.51-.32-6.7-.93-6.38-1.75-12.61-3.95-18.93-5.88-1.91-.59-3.82-1.1-5.11-2.78Z"/><path class="ao" d="M-23.92,272.09c13.34,0,26.69-.32,40,1a6,6,0,0,1,1.52,4.08c.21,9.54-.05,19.1.53,28.62a3.67,3.67,0,0,1-.8,1.43c-2.4,1-4.13-.55-5.89-1.68-10.74-6.91-21-14.47-31.74-21.46a11.07,11.07,0,0,1-3.62-4Z"/><path class="ap" d="M-23.92,280.09l40,27c.23.9-.09,1.25-1,1l-39,14Z"/><path class="aq" d="M532.08,177.09c2.84-.22,4.79-2.24,7-3.65,11.61-7.45,23.14-15,34.72-22.49a11.39,11.39,0,0,1,2.29-.86v36l-44-8a.63.63,0,0,1-.22-.66C531.93,177.2,532,177.09,532.08,177.09Z"/><path class="ar" d="M305.08,364.09q-6-21.61-12-43.22c-.26-.94-.64-1.86-1-2.78,4.58,1.13,6.58,5.35,9.44,8.35,9.54,10.05,18.19,20.92,28.09,30.64a40.19,40.19,0,0,1,5.47,7Z"/><path class="as" d="M74.08,314.09c2.89,2,2.77,5.46,3.77,8.25,4.4,12.39,8.36,24.93,12.57,37.39a13.35,13.35,0,0,1,.66,4.36h-27c2.33-11.65,4.86-23.27,6.89-35C71.85,324.06,72.93,319.07,74.08,314.09Z"/><path class="at" d="M107.08,364.09q18.49-16,37-32,2,16,4,32Z"/><path class="au" d="M543.08,232.09h1c8.81-3.73,18.22-2.78,27.4-3.53a5.9,5.9,0,0,1,4.61,1.54v15c-2.75,4.17-7.45,5.82-11.24,8.66-2.49,1.87-5.15,3.54-7.69,5.36-1.61,1.16-3.31,2.27-5.45,1.17s-2.46-3.36-3.11-5.38c-2.24-7-3.56-14.31-5.84-21.33A1.83,1.83,0,0,1,543.08,232.09Z"/><path class="av" d="M526.08-10.91C518.91-4.49,510.31-.08,502.71,5.74c-5.48,4.21-12,7.06-16.63,12.35l-.8.22a2.54,2.54,0,0,1-1.09-1.2c-1.34-8.06-3.42-16-4.46-24.1a5.19,5.19,0,0,1,1.35-3.92Z"/><path class="aw" d="M16.07,232.09l-40,30v-31c1.72-1.61,3.9-1.67,6.06-1.69,8.77-.06,17.54,0,26.31,0a12,12,0,0,1,6.63,1.7h1l.33.5Z"/><path class="ax" d="M-22.93,72.08h-1v-29c15.34.9,30.61,2.73,46,3-14.6,7.46-28.71,15.8-42.9,24A12.1,12.1,0,0,0-22.93,72.08Z"/><path class="ay" d="M156.08-10.91c-2.52,3.74-6.72,5.27-10.22,7.71C137.05,3,128.12,9,119.2,15a8.32,8.32,0,0,0-3.13,3.1.78.78,0,0,1-1,0c.07-9.77-1.44-19.39-3-29Z"/><path class="az" d="M389.08-10.91l-1,3c-1.83,3.85-5,6.66-8.11,9.27-7.53,6.26-14.07,13.52-21.16,20.22-1.52,1.44-2.78,4.07-5.72,2.52l3-35Z"/><path class="ba" d="M-23.92,128.09l31,9c.35.22.47.44.35.66s-.23.34-.34.34C2.2,144.61-4.51,149.26-10.47,154.6c-4.37,3.92-8,8.86-13.45,11.49Z"/><path class="bb" d="M576.08,27.09q-13.49-16-27-31.95c-1.69-2-3.36-4-5-6,9.76,0,19.52.1,29.28-.08,2.41,0,2.81.54,2.78,2.83C576,3.59,576.08,15.34,576.08,27.09Z"/><path class="bc" d="M455.08,364.09c7.37-10.23,14.24-20.83,23-30,5.3,9.71,10.51,19.46,14,30Z"/><path class="bd" d="M15.08,231.08h-39v-28C-12,211.21-.14,219.3,11.7,227.5A23.06,23.06,0,0,1,15.08,231.08Z"/><path class="be" d="M548.08,315.08l28-20v32c-9.33-3.7-18.24-8.48-28-11a.6.6,0,0,1-.24-.66C547.91,315.19,548,315.08,548.08,315.08Z"/><path class="bf" d="M576.08,230.09c-10.73-.28-21.34,1.39-32,2,6.81-6.3,13.69-12.51,20.38-18.93,3.71-3.57,7.33-7.2,11.63-10.06Z"/><path class="bg" d="M169.07,39.08c15.71.29,31.28-2.65,47-2q-6.49,23.51-13,47a1.13,1.13,0,0,1-.38,1.55,4.92,4.92,0,0,1-2.56.8c-14.21,1.42-28.51,1.76-42.73,3.09-3.13.29-6.31.5-9.39-.48-2.45-1.32-1.78-3.43-1-5.23,5.79-13.82,11.62-27.63,17.7-41.33a3.73,3.73,0,0,1,2.37-2.4Z"/><path class="bh" d="M307.07,30.08c12-.77,23.86-2.15,35.74-3.75,3.41-.46,6.84-.83,10.26-1.25,1.24,1.13,1.29,2.62,1.2,4.13-.67,11.72-1.44,23.44-1.83,35.18a5,5,0,0,1-.83,2.6,4,4,0,0,1-1.4,1.08c-16.66,3.6-33.52,6.2-50.26,9.39a5.61,5.61,0,0,1-3.88-.38c-1.26-1.45-.92-3.12-.55-4.73C298.28,60.06,301,47.76,304,35.51a9,9,0,0,1,2.12-4.43Z"/><path class="bi" d="M306.07,31.08q-3.63,16.71-7.27,33.42c-.92,4.19-1.82,8.39-2.73,12.58l-.48.64c-4.34,2.64-9.42,2.88-14.16,4.09-8.28,2.12-16.48,4.6-24.94,6l-.79-.21-.63-.5c0-14.16.05-28.32,0-42.48,0-2.78.35-4.87,3.61-5.47,14.49-2.62,29-5.34,43.43-8A24.09,24.09,0,0,1,306.07,31.08Z"/><path class="bj" d="M203.07,85.08c0-.33,0-.66,0-1,9.11,2.13,18.46.8,27.69,1.71,8,.79,16.18,1.06,24.29,1.28h0c.52,1.1-.13,1.85-.78,2.6-9.67,9-19.75,17.52-29.27,26.68-2.07,2-3.87,4.73-7.47,3.93a6,6,0,0,1-2.72-3.42c-3.36-9.16-7.57-18-11.1-27.06C203.16,88.32,202.24,86.81,203.07,85.08Z"/><path class="bk" d="M115.07,18.08h1a7.2,7.2,0,0,1,1.59,5.1c.19,20.39.92,40.76,2,61.12a24,24,0,0,1-.55,8.4,3.7,3.7,0,0,1-.93,1.38c-3.09,1-5.49-1-7.91-2.17C95.42,84.84,80.38,78.14,65.46,71.18a6.25,6.25,0,0,1-2-1.43c-.13-.22-.25-.45-.37-.67,9-9.57,18.1-19,28-27.72,6.37-5.6,12.11-11.93,18.16-17.89C111.1,21.61,113.12,19.88,115.07,18.08Z"/><path class="bl" d="M18.07,76.09l1-1c12.2-1.79,24.43-3.47,36.6-5.46a68.6,68.6,0,0,1,7.39-.55h0a5.25,5.25,0,0,1,2.49,4.59c1.26,16.83,2.77,33.64,4,50.47.34,4.41,1.76,8.82.56,13.31-2.6,4-4.28.54-5.56-1-7-8.48-14-16.93-20.71-25.56C36.21,101.08,28,91.71,20.4,81.82,19.09,80.1,17.53,78.53,18.07,76.09Z"/><path class="bm" d="M486.08,18.09c3.15-.07,5.54,2,8.17,3.18,10.36,4.76,20.57,9.85,30.83,14.82,0,.33,0,.66,0,1-4.87,8.21-11.82,14.75-17.92,22s-12,14.18-18.12,21.2a25.52,25.52,0,0,1-4.26,4.18c-1.59,1.14-3,1.49-3.84-.91-.93-7.65.47-15.24.82-22.84q.81-17.13,1.71-34.29c.16-3,.13-6,2.62-8.28Z"/><path class="bn" d="M482.08,85.09c7-5.66,11.85-13.34,17.94-19.86,8.57-9.18,15.86-19.52,25.05-28.15-.08,19.34.49,38.69-1,58h0c-1.47,1.09-3.11,1-4.76.63-11.32-2.34-22.54-5.19-33.9-7.42a5.5,5.5,0,0,1-3-1.63A1.66,1.66,0,0,1,482.08,85.09Z"/><path class="bo" d="M210.08,331.09h-65a1.36,1.36,0,0,1-.3-1.32c3.66-4.71,7.73-9.08,11.82-13.38q17.84-18.7,35-38c1.43-1.61,2.85-3.26,5-4.07a6,6,0,0,1,1.58-.23c21.09,3.07,42,7.21,63,10.72a6,6,0,0,1,3.55,1.67l.43.74c0,.29,0,.57-.08.86-6.66,5.16-13.39,10.24-20,15.51-11.24,9-22.38,18.12-33.58,27.17C211.17,331,210.56,331,210.08,331.09Z"/><path class="bp" d="M291.08,316.09c-2.14,3.08-5.76,3.81-8.82,5.32-6.68,3.31-13.08,7.24-20.18,9.68q1.49-21.51,3-43h0c1.54-.63,2.53.41,3.45,1.28,7.59,7.11,14.22,15.09,21.13,22.83C290.56,313.21,291.81,314.35,291.08,316.09Z"/><path class="bq" d="M145.08,330.09v1l-1,0c-6.82-5.34-14-10.17-20.54-15.93-1.54-1.36-3.21-2.85-5.47-3.09h-15c.45-2.74,2.75-2.24,4.51-2.42,3.21-.33,6.47.21,9.64-.56,6.42-6.51,10.84-14.5,16.11-21.84s10-14.76,15.17-22a1.64,1.64,0,0,1,1.53-.36,3.1,3.1,0,0,1,1,1.37c.41,8.84-.88,17.58-1.67,26.34-1,10.6-2,21.2-2.71,31.82A11.66,11.66,0,0,1,145.08,330.09Z"/><path class="br" d="M18.07,76.09c4.17,7,9.78,12.85,14.78,19.18,10.64,13.46,21.56,26.7,32.32,40.06a13.15,13.15,0,0,0,3.9,3.75c0,.31,0,.62,0,.94a3.37,3.37,0,0,1-1.5,1.08c-11.44-.62-22.91.12-34.32-.77-5-.39-9.95-.59-14.93-.59-2.86,0-5.64-.23-8.2-1.65h-3c0-.34,0-.67,0-1l1-1c2-13.24,3.74-26.52,6.12-39.69C15.41,89.62,15.14,82.53,18.07,76.09Z"/><path class="bs" d="M19.07,179.08c6.24-3.88,13.48-5.2,20.19-7.87,4.27-1.7,8.86-2.62,12.82-5.12a1.44,1.44,0,0,1,2.13.21c1.23,7.43-1.42,14.5-2.11,21.76-.83,8.78-2.52,17.47-3.78,26.21a8.21,8.21,0,0,1-.27,1.48c-.55,1.67-.43,4-2.62,4.38-1.78.28-2.82-1.49-3.84-2.81a16.64,16.64,0,0,1-1.12-1.66c-5.72-9.78-12-19.24-17.83-28.93a49,49,0,0,1-3.56-7.64Z"/><path class="bt" d="M54.08,166.09h-2C43.86,159.64,34.67,154.69,26,149c-5.37-3.51-11.25-6.3-15.88-10.9,16.56-.47,33.08,1.69,49.66,1,3.12-.12,6.13,1.45,9.33.94.1.22.19.43.29.64a132.31,132.31,0,0,1-14.6,25.19Z"/><path class="bu" d="M349.07,308.08c-13.08,1.15-26,3.52-39,5.48-6,.91-12,1.7-18,2.54v0a15.14,15.14,0,0,1-2.59-8.46c.28-9.67-1.14-19.26-1.43-28.91-.05-1.68-.26-3.34.91-4.77,3.3-2.28,7.09-1.68,10.63-1.4,18.5,1.47,37.05,2,55.56,3.31a4.37,4.37,0,0,1,1.63.69c.72,10.54-2.71,20.31-5.71,30.15C350.86,307.36,349.75,307.61,349.07,308.08Z"/><path class="bv" d="M349.07,308.08c3.4-5.69,3.16-12.37,5-18.5,1.21-4.11,1.32-8.5,3.05-12.49a3.35,3.35,0,0,1,1-1.24c10.36-3.63,21.11-5.92,31.67-8.86,5.26-1.47,10.37-3.67,16-3.69a2,2,0,0,1,1.6,1.53c-7.63,16.62-14.22,33.68-21.36,50.51-.84,2-1.26,4.18-3.19,5.52l-.73.22c-8.29-1.81-15.53-6.3-23.39-9.21-2.93-1.09-5.74-2.51-8.6-3.78Z"/><path class="bw" d="M351.08,65.09c-.1-13.37.95-26.69,2-40v-1c2.3-.06,3.41-1.91,4.75-3.3,9.67-10,19.95-19.36,30.24-28.71q-1.5,17.51-3,35a1.38,1.38,0,0,1,.29,1.32c-9.54,11.56-19.59,22.7-29.44,34C354.73,63.79,353.53,65.74,351.08,65.09Z"/><path class="bx" d="M289.08,274.1q1.5,21,3,42l-1,0a239.48,239.48,0,0,0-26-28v-1c.07-.22.14-.45.2-.67a136.85,136.85,0,0,1,23.16-12.58Z"/><path class="by" d="M11.08,360.09a2.14,2.14,0,0,1-2-1A2.94,2.94,0,0,0,11.84,356c0-16,4.48-31.8,3.24-47.93l1-1h1a3.58,3.58,0,0,1,2.56-.79c15.39.57,30.69,2.53,46.07,3.32,2.93.15,6,.21,8.38,2.48,0,.33,0,.66,0,1-7.49,4-13.59,9.85-20.29,14.89-13.86,10.45-27.51,21.19-41.27,31.79C12.16,360,11.56,360,11.08,360.09Z"/><path class="bz" d="M503.07,114.11c0,.33,0,.65,0,1,2.42,3.15,2.23,7,2.26,10.55.22,20.1,2.61,40.13,2.15,60.25a15.66,15.66,0,0,1-.2,2.48,4.21,4.21,0,0,1-.71,1.62,2.9,2.9,0,0,1-3.84.19c-8-7.84-17.49-13.71-26.27-20.51-12.72-9.87-25.79-19.29-38.65-29-1.57-1.18-3.29-2.38-3-4.78a3.71,3.71,0,0,1,1.54-1.69c20-6.58,40-12.89,60-19.37C498.47,114.17,500.69,113,503.07,114.11Z"/><path class="ca" d="M503.07,114.11c-22.35,6.94-44.32,15.07-67,21a1.67,1.67,0,0,1-.24-1.34c1.3-2.55,3.42-4.5,5.37-6.45,13.52-13.57,25.63-28.53,40.16-41.11l.71-.1,42,9Z"/><path class="cb" d="M506.07,190.07c.45-21.08-2.28-42-2.15-63.13,0-3.89-1-7.86-.84-11.85,10.55,3.9,19.71,10.57,30,15-.34,1-.67,2-1,3-.14,4.68-2.79,8.47-4.6,12.52-6.62,14.82-12.94,29.77-20,44.4A1.13,1.13,0,0,1,506.07,190.07Z"/><path class="cc" d="M442.08,317.09a2.1,2.1,0,0,0-2-1c-.21-.23-.43-.45-.66-.68-1.34-12.06-3.47-24.12-.78-36.28a3.81,3.81,0,0,1,1.61-1c20.39.59,40.78.08,61.18.36a10.42,10.42,0,0,1,2.93.46c3.38,1.47,1.75,3.83.79,5.78-2,4-4.28,7.85-6.36,11.81-5.62,10.7-11.37,21.34-17,32a12.3,12.3,0,0,1-2.73,3.5l-1,1Z"/><path class="cd" d="M479.07,332.08c3.56-9.87,9.59-18.5,14.09-27.91,3.92-8.21,8.59-16.06,12.92-24.07l.63-.34a3,3,0,0,1,1.35.38c12,10.5,24.44,20.39,36.42,30.88a14.85,14.85,0,0,1,3.58,4.05h0c0,.33,0,.66,0,1l-1,0c-14.32,2.62-28.19,7.18-42.41,10.22C496.12,328.15,487.93,331.64,479.07,332.08Z"/><path class="ce" d="M19.08,179.09C26.87,190,33.42,201.68,40.53,213c1.39,2.21,2.46,4.66,5.38,7,1.44-9.57,2.8-18.56,4.17-27.55q2-13.17,4-26.34h0a6.81,6.81,0,0,1,4.39-.08q26.22,7.45,52.46,14.87a3.29,3.29,0,0,1,.85.49,2.19,2.19,0,0,1,.82,1.28c0,2.45-2,3.38-3.66,4.31-20.66,11.41-40.84,23.67-61.58,34.94a8.23,8.23,0,0,1-1.43.54c-7.86,2.89-15.85,5.42-23.74,8.21-1.95.68-4,1.87-6.11.46v0Z"/><path class="cf" d="M118.08,94.08c.28-14-.85-27.86-1.28-41.77-.36-11.41-.45-22.82-.72-34.22q22.7,9.59,45.38,19.19c1.82.78,3.48,2,5.61,1.8v1Q158,61.27,148.94,82.46c-.77,1.81-1.25,3.75-1.87,5.62a2.58,2.58,0,0,1-1.45,1.82c-8.4,2-16.86,3.77-25.4,5.11a4,4,0,0,1-1.56-.38Z"/><path class="cg" d="M506.08,280.1q-25.86,0-51.72,0c-4.79,0-9.58.18-14.29-1-1.35-1.88.1-3.13,1.1-4.35q26.11-32,52.23-64a5.17,5.17,0,0,1,1.57-1.2,4.65,4.65,0,0,1,1.46-.35c6.46,1.27,11.88,5,17.83,7.49,8.58,3.6,16.61,8.36,25.26,11.79a9.64,9.64,0,0,1,3.56,2.66v2c-.64,4.73-4.36,7.6-7,11-8.25,10.34-16.16,20.94-24.48,31.22-1.57,2-3.09,3.86-5.48,4.82Z"/><path class="ch" d="M543.08,231.09c-11.17-3.77-21.26-9.94-32.05-14.55-5-2.14-9.73-4.9-15-6.47a1.78,1.78,0,0,1-.53-1.81c2.83-6.45,5.5-13,10.55-18.17v0h1a7.15,7.15,0,0,1,3.65-3.23c5.43-2.07,10.51-4.88,15.75-7.38,1.44-.69,3-1.71,4.61-.38q6,24.76,11.91,49.53A12.75,12.75,0,0,1,543.08,231.09Z"/><path class="ci" d="M531.07,179.08l-24,11c1.52-8.26,6.27-15.22,9.28-22.89,4.35-11.05,9.62-21.74,14.53-32.56a7.9,7.9,0,0,1,1.2-1.54c2.11,4.6,1.42,9.59.81,14.15-1.34,10-.4,19.92-.8,29.86,0,.33,0,.66,0,1Z"/><path class="cj" d="M74.08,312.09c-14.79-1.29-29.58-2.5-44.35-3.94-3.55-.35-7.29,1.08-10.65-1.07-.3-3.18,2.5-3.55,4.36-4.58Q43.66,291.33,64,280.32l.77-.29a8,8,0,0,1,1.69-.31c14.11.16,28.2-1.16,42.3-.75a4,4,0,0,1,1.4.81c.85,1.44.19,2.59-.86,3.5-11.27,9.78-22,20.2-34.24,28.8Z"/><path class="ck" d="M75.07,312.08c5.14-6.77,12.68-10.9,18.59-16.87,5.07-5.11,10.92-9.45,16.42-14.12,2.28-.41,3,1.33,3.31,2.87,1.77,8.74,5,17.16,5.68,26.13-2.8,2-6,.56-9,1-2.34.34-4.9-.88-7,1Z"/><path class="cl" d="M382.07,322.08v-1h0c6.76-3.59,14.32-2.8,21.5-3.35,10.28-.79,20.51-2.09,30.8-2.71,2-.11,4-.45,5.69,1.05h0c-11.88,15.35-25.15,29.49-38,44C395.77,347.23,389.19,334.51,382.07,322.08Z"/><path class="cm" d="M433.07,38.08c-6.79-7.06-13.86-13.89-20.32-21.25C405.44,8.49,397,1.23,389.31-7.55,409-9,428-6.85,447.07-6.92h0c1.36,1.74.4,3.49-.06,5.19-3.46,12.77-6.92,25.54-10.56,38.26a4.87,4.87,0,0,1-.72,1.35,2.16,2.16,0,0,1-1.3.73A1.86,1.86,0,0,1,433.07,38.08Z"/><path class="cn" d="M433.07,38.08h1c1.25,1.63.15,2.85-.81,4C424.2,52.46,415,62.73,405.94,73.17a3.87,3.87,0,0,1-3,1.52,2.62,2.62,0,0,1-1.38-.61c-3.82-7-5.73-14.74-8.66-22.09-2.62-6.6-4.55-13.46-7.29-20a7.24,7.24,0,0,1-.5-3.87v-1c10.55,2.45,21.1,4.93,31.65,7.36C422.17,35.7,427.63,36.87,433.07,38.08Z"/><path class="co" d="M548.06,315.07c-10.93-8-20.82-17.24-31.23-25.86-3.4-2.82-7.43-5.09-9.76-9.11,1.15-2,3.12-2.86,5.09-3.73,10.73-4.76,21.64-9.09,32.42-13.7,2-.86,4.15-2.43,6.49-.6-1,13.85-2,27.69-2.86,41.54C548,307.42,548.1,311.25,548.06,315.07Z"/><path class="cp" d="M551.07,262.07c-7.05,1.46-13.22,5.11-19.76,7.83-8.09,3.37-16.16,6.8-24.24,10.2h-1l37-47c2.77,1.37,2.21,4.31,2.86,6.56,2,6.83,3.09,13.92,6.14,20.44v1Z"/><path class="cq" d="M17.07,273.08v-1c-.42-2.12.52-3.87,1.52-5.61,7.6-13.12,15.07-26.3,22.59-39.46,1.06-1.85,1.9-4,4.48-4.27,2.26.68,2.86,2.67,3.46,4.56,5.11,16.18,10.25,32.35,15.21,48.58.53,1.73,1.19,3.53-.26,5.2h0c-1.67,1.14-3.47.89-5.3.59-12.33-2-24.6-4.24-36.91-6.28C20.06,275.09,18.24,274.75,17.07,273.08Z"/><path class="cr" d="M17.07,273.08l47,8c-4.73,4.63-11.16,6.35-16.66,9.69-8.36,5.08-17.17,9.42-25.81,14a4.83,4.83,0,0,0-2.53,2.26h-2c-1.64-11.29-.8-22.65-1-34Z"/><path class="cs" d="M45.08,223.09l-28,49c-1.88-2.9-1.16-6.11-.72-9.11,1.45-9.88.49-19.79.52-29.68,0-.4-.52-.8-.8-1.2,0-.33,0-.66,0-1l30-10C46.64,222.21,45.85,222.64,45.08,223.09Z"/><path class="ct" d="M482.08,85.09c0,.33,0,.66,0,1h0a7,7,0,0,1-3.16,1.34c-10.68.32-21.37,1.14-32-.49-1.46-.78-1.88-2.19-2.24-3.66-3.22-13-7-25.84-9.81-38.92-.46-2.12-.86-4.21.24-6.26h0c2.84-3.09,6.94-3.71,10.53-5.26Q462.25,25.65,479,18.87c1.88-.76,3.81-2.31,6.05-.79h1c-1.58,9.11-1.23,18.36-1.92,27.54C483.16,58.76,482.74,71.93,482.08,85.09Z"/><path class="cu" d="M485.08,18.08q-22,9-43.93,18c-2,.81-4,1.38-6.07,2,3.17-15.22,8-30,12-45h34C482.1,1.47,485.27,9.51,485.08,18.08Z"/><path class="cv" d="M203.07,85.08c4.13,9.91,8.24,19.82,12.41,29.72.76,1.81,1.73,3.53,2.6,5.29a1.6,1.6,0,0,1-.71,1.59c-4.44,1.63-9.21,1.81-13.76,1.8-11.5,0-22.93,1.52-34.41,1.18-5.16-.16-10.23,1.74-15.39.55-3.94-2.16-1-3.84.61-5.12q8.12-6.63,16.51-12.92c8-6,15.93-12,23.77-18.21a53.39,53.39,0,0,1,6.38-3.87Z"/><path class="cw" d="M201.08,85.09c-6.07,6.1-13.28,10.75-20,16-9.12,7.07-18.32,14-27.46,21.07a9.74,9.74,0,0,0-1.52,1.93l-.76.24a2.35,2.35,0,0,1-1.1-1.12,5.74,5.74,0,0,1-.44-1.57c-1.59-8.85-2.53-17.79-3.9-26.67-.3-1.95-.79-3.95.21-5.87l1-1q23.07-.6,46-2.91C195.74,84.9,198.42,85.1,201.08,85.09Z"/><path class="cx" d="M296.07,77.08c11.83-3.14,24-4.61,35.95-7,6-1.18,12-2,18.06-3,1.92,2.22,1.11,4.73.64,7.12q-5.64,28.26-11.54,56.45a4.33,4.33,0,0,1-.82,1.43c-1.66,1.36-3.48.87-5.21.28-15.58-5.29-31.36-10-46.89-15.41a4.48,4.48,0,0,1-1.25-1,3.66,3.66,0,0,1-.68-1.47c.75-8,4.19-15.24,6-22.93.81-3.37,2.11-6.61,2.9-10,.42-1.79,1-3.52,2.8-4.44Z"/><path class="cy" d="M338.08,131.09c.86-9.88,3.9-19.35,5.49-29.09,1.91-11.69,5.6-23,6.51-34.91h1c1.66-1.48,3.64-1.46,5.65-1.12,13.9,2.35,27.86,4.31,41.77,6.58a6.83,6.83,0,0,1,3.6,1.55h1a1.74,1.74,0,0,1,.11,1.38c-5.78,6.21-12.37,11.54-18.71,17.15-13,11.46-26.09,22.7-39,34.26C343.38,128.8,341.61,131.54,338.08,131.09Z"/><path class="cz" d="M402.08,74.09c-13.22-.82-26.14-3.77-39.22-5.56-3.92-.53-7.77-1.76-11.8-1.45,0-.67,0-1.33,0-2C359,58.33,364.89,49.67,372,42.16c4.41-4.64,7.76-10.26,13.06-14.07C391.82,43,396.73,58.63,402.08,74.09Z"/><path class="da" d="M254.07,89.08l1-2h1a7.33,7.33,0,0,1,2.58,1.42c7.53,7.87,16.21,14.53,23.65,22.51a26.66,26.66,0,0,1,2.76,4.06h0c.46,1.78-1,2.31-2.06,3-11.77,7.11-23.6,14.13-35.57,20.91a3.36,3.36,0,0,1-1.92.41,2.41,2.41,0,0,1-1.18-1.07c-1.14-3-.06-5.92.49-8.79,2.22-11.69,4.81-23.31,6.92-35A10.17,10.17,0,0,1,254.07,89.08Z"/><path class="db" d="M285.07,115.08c-9.5-9.5-20.26-17.7-29-28,13.17-4,26.55-7.12,40-10Q290.56,96.09,285.07,115.08Z"/><path class="dc" d="M254.07,89.08c-2.47,12.92-5,25.84-7.38,38.77-.69,3.71-1.09,7.48-1.62,11.22l-.61.35a3.16,3.16,0,0,1-1.36-.28c-8.39-5.61-17.12-10.72-24.75-17.42-.09-.21-.19-.42-.28-.64s0-.66,0-1c6.86-3.68,11.2-10.28,17.24-15C241,100.79,245.84,95.5,251,90.61A4.46,4.46,0,0,1,254.07,89.08Z"/><path class="dd" d="M69.07,139.08c-.46-11.22-1.65-22.37-2.82-33.54-1.06-10-1.5-20.09-2.15-30.15-.14-2.14.2-4.34-1-6.3,13.35,5,26,11.57,38.91,17.58,5.07,2.36,10.53,4,15.08,7.42.72,2-.87,3.06-2,4.18-8.53,8.82-17.72,16.94-26.81,25.16-3.82,3.45-7.23,7.31-11.08,10.72-2.38,2.11-4.39,5-8.14,4.94Z"/><path class="de" d="M69.08,139.09c7.57-4.62,13.08-11.6,19.48-17.51,9.69-8.94,20-17.28,28.51-27.49h1v0c1.65,1.76,1.59,4,1.51,6.12-.36,9.63-.46,19.26,0,28.89a7.45,7.45,0,0,1-1.31,5.22,9.69,9.69,0,0,1-5.44,2.16c-12.62,1.64-25.29,2.9-38,4.19-1.91.2-4,.78-5.75-.59h0C69.07,139.75,69.08,139.42,69.08,139.09Z"/><path class="df" d="M265.07,287.08q-23.08-4-46.17-8c-7.29-1.28-14.56-2.66-21.83-4-.11-3.54,3.12-4.46,5.14-6.06,16-12.64,31.9-25.34,48-37.83,2-1.51,3.48-3.61,6-4.39a1.61,1.61,0,0,1,1.42.5,9.2,9.2,0,0,1,1.65,3.76c2.29,16.42,4.32,32.87,6.51,49.3.3,2.29.88,4.62-.68,6.72Z"/><path class="dg" d="M145.08,330.09c.15-15.84,2.09-31.52,3.81-47.24.64-5.89.8-11.83,1.19-17.75a2.57,2.57,0,0,1,1.45-.72c14.31,2.21,28.42,5.43,42.46,8.94a4,4,0,0,1,1.66,1.08c.15.23.29.46.43.7-5.37,6.07-10.57,12.31-16.16,18.18C168.28,305.52,157.4,318.49,145.08,330.09Z"/><path class="dh" d="M256.08,227.1c-5.21,6.58-12.56,10.62-18.9,15.85-13.23,10.88-26.73,21.44-40.11,32.13l-1,0v0a5.28,5.28,0,0,1-1.37-3.42c1.21-13.32.16-26.71,1.24-40a3.91,3.91,0,0,1,1.73-2.22,5.73,5.73,0,0,1,1.8-.57c16.67-1.65,33.45-1.51,50.13-3.16a9.56,9.56,0,0,1,5.83.79C255.65,226.65,255.86,226.87,256.08,227.1Z"/><path class="di" d="M151.06,265.06l-1,0h-1c-1.63-.17-2.63-1.35-3.67-2.4-10-10-20.07-19.91-29.92-30-1.3-1.34-5.08-3.11-.9-5.68,18.16-1.67,36.36-1.93,54.56-2.14a4.57,4.57,0,0,1,1.58.62,1.85,1.85,0,0,1,.75,1.37c-5.48,12.54-12.66,24.23-18.7,36.49A5,5,0,0,1,151.06,265.06Z"/><path class="dj" d="M113.07,228.09Q128.76,244,144.43,260c1.62,1.65,3.1,3.42,4.65,5.13,0,.33,0,.66,0,1-7.3,4.7-15.8,6.59-23.62,10.07-3.31,1.47-6.74,2.71-10.17,3.9-1.64.57-3.47,1.57-4.85-.6s-.82-4.87-.93-7.34c-.6-13.64.88-27.25.74-40.88a3.87,3.87,0,0,1,.63-2.48c.2-.21.41-.41.61-.61A1.44,1.44,0,0,1,113.07,228.09Z"/><path class="dk" d="M111.07,280.08q16.88-6.43,33.73-12.9c1.4-.54,2.72-1.23,4.27-1.1Q136.91,284,124.74,301.9c-1.87,2.75-3.78,5.46-5.67,8.19-3.2-6.87-4.08-14.37-6-21.58-.7-2.57-.08-5.72-3-7.42v-1A.59.59,0,0,1,111.07,280.08Z"/><path class="dl" d="M69.08,140.09c7.5-1,15-2.35,22.51-2.89,8.89-.65,17.67-2,26.49-3.12.14.25.29.5.44.75a5.91,5.91,0,0,1,.09,1.73c-.36,13.9-2.64,27.62-4,41.42-.16,1.61.07,3.87-2.57,4.11-15-2.93-29.48-8.08-44.26-12-4.61-1.21-9.16-2.68-13.74-4Q61.58,153.09,69.08,140.09Z"/><path class="dm" d="M356.07,277.08c-17.71-.35-35.38-1.28-53-2.89-4.62-.42-9.31-.08-14-.09v0a1.71,1.71,0,0,1-.42-1.44c3.94-12.17,8.06-24.29,12.15-36.42.78-2.32,1.38-4.83,3.48-6.49a2.9,2.9,0,0,1,1.46-.22c5.34,3.17,9.43,7.89,13.84,12.08,10.5,10,21.56,19.33,31.83,29.55a23.52,23.52,0,0,0,4.33,3.35C356.48,275.27,356.91,276.09,356.07,277.08Z"/><path class="dn" d="M356.07,277.08a2.09,2.09,0,0,0-1-2c-1.71-1.73-2.36-4-3-6.21-3.33-11-7-21.82-10.51-32.75-.94-2.94-2.38-5.9-1.6-9.19a4.13,4.13,0,0,1,1.48-.95,66.29,66.29,0,0,1,17.84-.41c11.26,1,22.51.7,33.77.9a14.19,14.19,0,0,1,3.44.4c4,1.77,1.75,3.92.23,5.84-4.85,6.14-10.06,12-15.17,17.9-7.69,8.93-15,18.22-23.46,26.45l-1,0Z"/><path class="do" d="M495.08,210.09q-15.57,19.33-31.17,38.65c-7.62,9.39-15.33,18.7-23,28.08a8.08,8.08,0,0,0-.89,2.26l-1,0a2.89,2.89,0,0,1-3.27.22c-9.16-3.84-18.07-8.24-27-12.51a3.51,3.51,0,0,1-1.7-1.74l-1-1c-.82-1.78.17-3.26.9-4.7,7.26-14.4,14.82-28.64,22.26-42.95.69-1.32,1.36-2.68,2.82-3.39,5.82-2.6,12.11-1.73,18.13-2.09,13.84-.81,27.65-2.46,41.55-2.27A4.22,4.22,0,0,1,495.08,210.09Z"/><path class="cg" d="M407.08,265.07Q421,271.31,435,277.52c1.34.6,2.75,1.06,4.12,1.58-.75,12.36,1.28,24.64,1,37-13.75,1.29-27.49,2.62-41.24,3.84-5.58.5-11.17.78-16.75,1.17q10.94-26,21.86-52.06C404.63,267.38,404.73,265.37,407.08,265.07Z"/><path class="dp" d="M431.08,214.09c-.33,4-2.94,6.89-4.64,10.22q-10.14,19.91-20.37,39.77l-48,13c1.73-4.24,5.21-7.15,8.08-10.51,10.42-12.23,20.92-24.38,31.36-36.6a5.07,5.07,0,0,0,.58-1.87A3.62,3.62,0,0,1,399,227c10.44-4.45,20.35-10.19,31.41-13.17Z"/><path class="dq" d="M289.08,273.09c0,.33,0,.66,0,1l-24,13c-2.23-16.51-4.48-33-6.65-49.54-.33-2.46-.24-5-.35-7.46,2.75-.54,3.82,1.64,5,3.31,8.44,11.73,16.28,23.88,24.74,35.6C288.69,270.18,289.59,271.44,289.08,273.09Z"/><path class="dr" d="M435.07,136.1c5.94,6.31,13.32,10.81,20.15,16,14.88,11.33,29.94,22.43,44.89,33.68a22.4,22.4,0,0,1,3,3.31c-3.56,2.71-7.69,1.73-11.53,1.38-16-1.48-32.06-2.81-48.13-3.86-3-.19-5.81-1.44-8.85-1.12a5.4,5.4,0,0,1-3.54-1.15,4.5,4.5,0,0,1-1.21-2.5c1.15-14.74.81-29.6,3.22-44.26C433.45,136.72,433.91,135.92,435.07,136.1Z"/><path class="ds" d="M435.07,136.1l-1,1c-2.64,1.69-5.52.66-8.25.58-6.92-.19-13.89.85-20.77-.67a2.58,2.58,0,0,1-1.51-1.88c-.08-1.68,1.07-2.7,2.06-3.82,12.07-13.72,24-27.58,36-41.31,1.28-1.45,2.26-4.56,5.27-2.13a6.12,6.12,0,0,1,.34,3.92c-3.47,13.51-6.11,27.22-10.24,40.56a7.24,7.24,0,0,1-.91,1.77v1Z"/><path class="dt" d="M434.08,184.09c15.08,1.29,30.16,2.78,45.26,3.77,7.9.52,15.77,1.86,23.73,1.23.74,1.14,1.91,1,3,1-2.8,6.93-7.71,12.8-10,20l-1,0h-3c-16-6.68-32.05-13.27-48.22-19.57C440.25,189.1,435.63,188.79,434.08,184.09Z"/><path class="du" d="M436.08,134.09c.31-8.21,3.74-15.75,5.11-23.74,1.33-7.81,4.84-15.17,4.89-23.26l-.34-.5.34-.5h36a18.17,18.17,0,0,1-1.49,2q-17.65,18.2-35.36,36.34C442.11,127.56,440.1,131.78,436.08,134.09Z"/><path class="dv" d="M112.07,228.08l-1,2c-1.79,3.81-4.8,6.72-7.56,9.74-11,12.09-21.88,24.35-32.68,36.66a19.41,19.41,0,0,1-5.76,4.6h-1c-2.47-11.14-6.55-21.79-9.86-32.67-2.06-6.79-4.1-13.59-6.31-20.33-.59-1.79-.59-4.07-2.82-5,.33-.67.66-1.33,1-2l1,0a18.47,18.47,0,0,1,7.85-.52c17.51,1.58,35,3.47,52.5,5.11C109.26,225.84,111.05,226.27,112.07,228.08Z"/><path class="dw" d="M112.07,228.08c-8.85-1-17.72-2-26.57-3-12.79-1.52-25.7-1.85-38.43-4,14.73-8.53,29.49-17,44.16-25.61,7-4.09,14.33-7.53,20.85-12.38a1.2,1.2,0,0,1,1.63.52,6.84,6.84,0,0,1,.77,4.31c-1.4,11-.45,22.08-.75,33.12-.07,2.46.19,5-1.66,7Z"/><path class="dx" d="M113.08,183.1h-1c0-.33,0-.67,0-1,1.58-3.49,1.59-7.29,2-11,1.17-11.6,2.15-23.22,3.24-34.82,0-.42.53-.81.81-1.21,2.38-.69,3.13,1.35,4.26,2.64,7.47,8.48,14,17.74,21.81,25.93a2.29,2.29,0,0,1,.3,1.4,3.77,3.77,0,0,1-1.27,1.75c-9.67,5.4-18.91,11.56-28.77,16.64A1.53,1.53,0,0,1,113.08,183.1Z"/><path class="dy" d="M118.08,134.08c-.65-13.33-.1-26.65,0-40h1c3.69,1.72,6.48,4.69,9.33,7.38,6.9,6.49,13.93,12.83,21,19.16.76.69,1,1.72,1.69,2.46,0,.33,0,.66,0,1A5,5,0,0,1,148,126.4c-8.56,3.17-17.43,5.37-26.11,8.2a3.9,3.9,0,0,1-3.78-.51Z"/><path class="de" d="M151.08,123.09c-11.49-8.77-21.8-18.82-32-29,9-1.72,17.83-4.25,27-5,2.37,8.06,2.48,16.5,3.93,24.72C150.55,116.86,151.57,119.9,151.08,123.09Z"/><path class="dz" d="M65.07,281.08c9.07-10.24,18.07-20.55,27.25-30.69,6.19-6.82,11.8-14.19,18.75-20.31,1.74,3.12,1.3,6.59.91,9.77-1.65,13.4-.55,26.83-.91,40.23h-1C95.09,280.88,80.09,281.37,65.07,281.08Z"/><path class="ea" d="M403.07,75.08c0-.33,0-.66,0-1,5.12-5.63,10.28-11.22,15.36-16.89q7.29-8.16,14.42-16.47a10.64,10.64,0,0,0,1.22-2.64h1c2.71,13.38,6.13,26.59,9.83,39.73a23.74,23.74,0,0,1,1.17,8.27h0a6.42,6.42,0,0,1-3.9.2c-12.35-3-24.71-6-36.9-9.59a5.23,5.23,0,0,1-1.72-1C403.39,75.52,403.23,75.3,403.07,75.08Z"/><path class="eb" d="M144.07,165.07v-1c-1.53-1.7-1.23-3.68-.88-5.68,1.75-10,4-19.88,6.15-29.81.38-1.82.88-3.58,2.73-4.51h0c17.55-.75,35.07-1.92,52.65-2.21,4.4-.07,8.88-.75,13.35-.79h0a7.2,7.2,0,0,1,1.62,5.09c-.06,12.77.42,25.54-.28,38.3a4.85,4.85,0,0,1-1,2.76,4.51,4.51,0,0,1-1.7,1,23.82,23.82,0,0,1-7.93.48c-13.9-1.64-27.86-.64-41.79-.93-6.31-.14-12.55-1.28-18.88-1.13A4.89,4.89,0,0,1,144.07,165.07Z"/><path class="cv" d="M152.07,124.08c-3.09,13.25-6.42,26.45-8,40-2.27-.11-3.39-1.84-4.62-3.36-6.6-8.16-13.17-16.34-19.79-24.49a7.46,7.46,0,0,0-1.58-1.15c0-.33,0-.66,0-1l33-10Z"/><path class="ec" d="M404.08,134.09v2l-.72.58a4.51,4.51,0,0,1-1.78.38c-11,0-21.91-1.25-32.9-1.39-8.14-.1-16.25-1.1-24.4-1.29a36.07,36.07,0,0,1-5.64-1.66l-.57-.61c0-.33,0-.66,0-1,8.64-6.17,16-13.84,24.1-20.64C376,98.87,388.92,86.27,403.07,75.08h0c2.83,5,2.33,10.65,2.54,16,.47,12.1.14,24.23.15,36.34A12,12,0,0,1,404.08,134.09Z"/><path class="ed" d="M246.07,139.07c6-5.27,13.44-8.17,20-12.45,6.21-4,12.64-7.7,19-11.53l1,1c3.36,3.32,4,8,5.76,12,5.76,13.28,11.23,26.69,16.81,40,.76,1.82,1.91,3.59.84,5.69-2.32,1.47-4.16-.16-5.92-1.14q-27-15.06-54.08-30C248,141.92,245.82,141.57,246.07,139.07Z"/><path class="ee" d="M309.07,174.08c-1.94-8.08-6.17-15.27-9.05-23-4.39-11.76-10.37-22.9-13.94-35,14.59,3.61,28.62,9,42.95,13.46,3,.93,5.8,2.47,9,2.54h0c.68,1.52-.42,2.52-1.13,3.58-7.6,11.35-15.33,22.62-22.55,34.22-1,1.68-2,3.47-3.95,4.41A1.65,1.65,0,0,1,309.07,174.08Z"/><path class="ef" d="M309.07,174.08h1c.08.28.16.55.23.82a2.86,2.86,0,0,1-1.22,1.14c-18.82,4.52-37.75,8.59-56.7,12.57-2.07.43-4.3,1-6-1.06a14.31,14.31,0,0,1-1.78-7.17c0-11.59-.63-23.15-1.15-34.72-.1-2.3-.1-4.68,1.63-6.57v0h1C256,144.7,265.89,150.4,275.86,156,286.89,162.07,298,168,309.07,174.08Z"/><path class="eg" d="M245.08,139.09c-.35,13.57,1.66,27.08,1.07,40.67-.12,2.76.6,5.55.93,8.33l-.58.44a4.54,4.54,0,0,1-4.13-1.21c-7.18-5.89-15-10.94-22.25-16.69-1.1-.87-2.64-1.63-2-3.54v-2c4.11-6.7,10.4-11.4,15.77-16.92,3.17-3.25,5.81-7.2,10.23-9.08Z"/><path class="eh" d="M244.08,139.09q-12.39,13.62-26,26,0-22,0-44C226.94,126.82,235.87,132.42,244.08,139.09Z"/><path class="ei" d="M247.08,188.09c12.9-2.79,25.76-5.84,38.73-8.28,8.09-1.53,15.92-4.45,24.26-4.73,1.73,3.17.71,6.54.36,9.73-1.38,12.69-2.39,25.41-3.77,38.1-.27,2.48-.35,5-2.72,6.64-4.24,2.11-8.84,1.51-13.15,1-9.37-1.06-18.83-.28-28.15-1.77-2-.31-4-.23-5.56-1.7h-1v0c-2.8-4.61-3.33-10-4.59-15-1.86-7.49-4.85-14.72-5.21-22.56a4.37,4.37,0,0,1,.81-1.42Z"/><path class="ej" d="M257.08,227.1c15.67.39,31.29,2.27,47,2,.92-.26,1.23.1,1,1-5.66,11.82-8.62,24.6-13.11,36.83-.79,2.13-.91,4.6-2.89,6.19Q275.52,253.47,262,233.86a11.29,11.29,0,0,0-3.9-3.78C256.93,229.36,257.1,228.2,257.08,227.1Z"/><path class="ek" d="M151.06,265.06a284.72,284.72,0,0,1,20-38c2.79,1.07,3.64,3.72,4.84,6,6.72,13,13.25,26.08,20.16,39v3q-21.1-4.5-42.2-9A22.79,22.79,0,0,1,151.06,265.06Z"/><path class="el" d="M247.08,188.09c0,.33,0,.66,0,1-1.86,4.36-6,6.52-9.34,9.39-11.13,9.63-22.51,19-33.5,28.75-1.56,1.38-3.55,1.72-5.16,2.86h-1c-1.72-2-.56-4.13.05-6.11C202.7,209.27,207,194.47,212,179.9a32.09,32.09,0,0,0,2.18-8.63c-.07-2.14,1.29-3.26,3-4.18h1c6.45,6.16,14.21,10.6,21.2,16.06C241.7,185,243.57,187.89,247.08,188.09Z"/><path class="em" d="M199.07,230.08c9.43-8.19,18.82-16.43,28.3-24.56,6.5-5.56,13.13-11,19.7-16.44,2.9,11.19,5.83,22.36,8.67,33.56a25.1,25.1,0,0,1,.33,4.44q-24.51,1.5-49,3C204.4,230.21,201.73,230.08,199.07,230.08Z"/><path class="en" d="M215.07,171.08c1.16,3.41-.86,6.32-1.76,9.28-4.9,16.12-10.08,32.16-15.15,48.23a6,6,0,0,0-.09,1.48c-.33.34-.67.67-1,1a63.67,63.67,0,0,1-26-5v0c-.69-2.16,1-3.41,2-4.76,12.37-16,25-31.88,37.56-47.73C211.74,172.22,212.78,170.45,215.07,171.08Z"/><path class="eo" d="M171.08,226.09c8.73,1.31,17.48,2.54,26,5-.08,13.68.49,27.37-1,41-3.12-.72-3.58-3.8-4.73-5.94-6.92-12.94-13.55-26-20.27-39.07C171.07,226.75,171.07,226.42,171.08,226.09Z"/><path class="ep" d="M215.07,171.08c-5.4,4.51-9,10.5-13.36,15.92-10.3,13-20.44,26-30.64,39.07-13.58,0-27.11,1.2-40.7,1.25-5.71,0-11.52.68-17.3.77h-1c.18-15-.61-30,1-45l1,0c5.5,2.2,9.68,6.38,14.34,9.79q18.92,13.83,37.62,28c1.13.85,2.67,1.47,2.55,2.95-7.36-15-13.92-30.72-21.15-46.14-1.76-3.73-3.86-7.35-4.36-11.57l1-1c18.88.92,37.79.93,56.68,1.22,5.4.08,10.87.72,16.33.8C216.49,168.47,215,169.36,215.07,171.08Z"/><path class="eq" d="M305.08,230.07l-1-1c1.85-8.9,1.93-18,3-27s2-18,3-27h0c2.39-2,5.31-1.76,8.06-1.53,10.37.88,20.75,1.58,31.13,2.35a9.88,9.88,0,0,1,4,1.84c1.13,1.48,1,3.13.57,4.77-3.45,13.72-7.62,27.24-11.35,40.88a7.34,7.34,0,0,1-2.41,3.7h0a4.38,4.38,0,0,1-3.31,2c-10.23.52-20.4,2.72-30.69,1Z"/><path class="er" d="M306.08,230.09c2-1.22,4.15-1,6.3-1a264.53,264.53,0,0,0,27.7-2c4.93,16,10.91,31.71,15,48-1.48,0-2.39-.94-3.37-1.86-10.94-10.29-21.8-20.65-32.87-30.79C314.46,238.43,309.68,234.88,306.08,230.09Z"/><path class="es" d="M340.07,227.08q6.27-22.52,12.5-45.05a30,30,0,0,0,.52-3.93,2.66,2.66,0,0,1,1.47-.72c12.54,1.35,24.65,4.93,37,7.14,5.35.95,10.84,1.55,15.93,3.7a2.9,2.9,0,0,1,1.14,1.19c.56,5.59-1.7,10.68-3.11,15.87-2.06,7.62-2.86,15.62-6.49,22.8h-1C378.73,228.84,359.42,226.67,340.07,227.08Z"/><path class="et" d="M434.08,184.09c6.78,5,15,6.74,22.61,10,10.64,4.54,21.43,8.76,32.17,13.08a6,6,0,0,1,3.21,2.94c-20.35,1-40.7,2.08-61,4h0a3.62,3.62,0,0,1-1.29-2.45c-.17-9-1.26-17.95.63-26.88l.66-.67Z"/><path class="eu" d="M431.07,212.08v2l-32,14c.85-9.1,4.09-17.65,6-26.49.92-4.19,2-8.33,3-12.5a1.85,1.85,0,0,1,2-.38C417.36,196.23,424.68,203.75,431.07,212.08Z"/><path class="ev" d="M404.07,136.07c7.57,0,15.14.08,22.72,0a26.93,26.93,0,0,1,7.27,1q-1.5,22.52-3,45c-2.21.53-2.89-1.24-3.67-2.6-8-14-16.16-27.81-23.67-42a1.62,1.62,0,0,1,.34-1.37Z"/><path class="ew" d="M404.08,137.09c5.05,5.42,7.41,12.48,11.22,18.66,4.78,7.76,9.05,15.83,13.5,23.79a5,5,0,0,0,2.27,2.54v2h0a42.94,42.94,0,0,1-21,5h-2c-1.35-1.45-1.41-3.29-1.61-5.12-1.52-13.57-2.07-27.22-3.65-40.77C402.56,141,402.28,138.83,404.08,137.09Z"/><path class="ex" d="M404.08,134.09c-.08-19.67.41-39.35-1-59l43,11v1c-5.37,6.06-10.64,12.21-16.12,18.17C421.2,114.76,413.72,125.39,404.08,134.09Z"/><path class="ey" d="M143.07,166.08c4.27,7.3,7.41,15.13,10.9,22.8,5.33,11.7,10.61,23.44,15.27,35.76-7.53-5.51-15.09-11-22.6-16.54-9.83-7.28-19.6-14.64-29.45-21.91a8.85,8.85,0,0,1-3.12-3.11c6.34-5.13,13.72-8.57,20.66-12.71C137.38,168.79,139.74,166.42,143.07,166.08Z"/><path class="ez" d="M354.07,178.08l-1,0c-1.1,0-2.28.13-3-1,.88-2.14.44-4.19-.22-6.3-3.14-10-6.91-19.73-10.46-29.57a27.71,27.71,0,0,1-1.12-3.29c-.95-4.33.15-5.43,4.81-4.85,18.38.67,36.76,1.32,55.14,2a30.34,30.34,0,0,1,4.85,1c-.15,3.13-2.91,4.23-4.8,5.83Q379,158.11,360,174.53C358.18,176.06,356.41,177.52,354.07,178.08Z"/><path class="fa" d="M354.07,178.08q13.73-11.84,27.44-23.66c7.16-6.14,14.37-12.23,21.56-18.34h1c0,.34,0,.67,0,1,1.27,14,2.59,28,3.78,42,.28,3.31.15,6.66.21,10-12.72-2.52-25.44-5-38.15-7.56C364.63,180.45,359.36,179.23,354.07,178.08Z"/><path class="fb" d="M343.08,133.08c-3.9-.39-4.8,1.57-3.53,4.81,4.59,11.7,8.67,23.57,12.72,35.46.86,2.55.84,3.83-2.2,3.74-13.39.51-26.62-2.4-40-2,0-.33,0-.66,0-1,9.28-14,18.09-28.39,28-42C339.77,132.31,341.67,131.45,343.08,133.08Z"/><path class="fc" d="M410.07,189.09a157.68,157.68,0,0,1,21-5q0,14,0,28A129.1,129.1,0,0,1,410.07,189.09Z"/></g></svg>