<svg width="454" height="287" viewBox="0 0 454 287" fill="none" xmlns="http://www.w3.org/2000/svg">
<rect width="454" height="287" fill="white"/>
<path d="M204.798 107.961C206.41 107.58 212.149 82.9196 230.961 81.798" stroke="#333333" stroke-width="4"/>
<rect x="187" y="106" width="40" height="60" fill="#C4C4C4"/>
<rect x="175" y="166" width="63" height="39" fill="#C4C4C4"/>
<rect x="187" y="161" width="40" height="5" fill="#A5A5A5"/>
<rect x="175" y="120" width="24" height="31" fill="#A5A5A5"/>
<rect x="175" y="205" width="16" height="18" fill="#A5A5A5"/>
<rect x="178" y="127" width="5" height="18" fill="#333333"/>
<rect x="186" y="127" width="5" height="18" fill="#333333"/>
<rect x="222" y="205" width="16" height="18" fill="#A5A5A5"/>
<ellipse cx="235.964" cy="80.1477" rx="10.5" ry="18.5" transform="rotate(70.1927 235.964 80.1477)" fill="#A94040"/>
<ellipse cx="250.587" cy="85.9304" rx="10.5" ry="18.5" transform="rotate(105 250.587 85.9304)" fill="#A94040"/>
<ellipse cx="258.506" cy="102.506" rx="10.5" ry="18.5" transform="rotate(135 258.506 102.506)" fill="#A94040"/>
</svg>
