<svg xmlns="http://www.w3.org/2000/svg" width="181.09mm" height="157.93mm" viewBox="0 0 513.33 447.67"><defs><style>.a,.b{fill:none;}.a,.b,.d{stroke:#231f20;stroke-miterlimit:10;}.a{stroke-width:9.52px;}.b{stroke-width:7.62px;}.c{fill:#231f20;}.d{fill:#fff;stroke-width:7px;}</style></defs><title>logo</title><path class="a" d="M507,257H5.6C5.6,118.54,117.83,6.31,256.28,6.31S507,118.54,507,257Z"/><path class="a" d="M423.4,257H89.16a167.12,167.12,0,1,1,334.24,0Z"/><path class="a" d="M341.7,257H170.86a85.42,85.42,0,1,1,170.84,0Z"/><line class="b" x1="238.49" y1="95.66" x2="400.07" y2="257.25"/><path class="c" d="M144,78.48h10.52a2.22,2.22,0,0,1,1.63.68,2.47,2.47,0,0,1,.74,1.68v2.31a2.47,2.47,0,0,1-.74,1.68,2.23,2.23,0,0,1-1.63.68H144V96a2.23,2.23,0,0,1-.68,1.63,2.48,2.48,0,0,1-1.68.74h-2.31a2.48,2.48,0,0,1-1.68-.74A2.22,2.22,0,0,1,137,96V85.52H126.45a2.22,2.22,0,0,1-1.63-.68,2.47,2.47,0,0,1-.73-1.68V80.84a2.48,2.48,0,0,1,.74-1.68,2.23,2.23,0,0,1,1.63-.68H137V68a2.24,2.24,0,0,1,.68-1.63,2.49,2.49,0,0,1,1.68-.74h2.31a2.49,2.49,0,0,1,1.68.74A2.22,2.22,0,0,1,144,68Z"/><line class="b" x1="224.08" y1="131.65" x2="349.42" y2="256.99"/><line class="b" x1="278.07" y1="86.22" x2="448.79" y2="256.93"/><path class="c" d="M67.21,177.51H77.73a2.22,2.22,0,0,1,1.63.68,2.47,2.47,0,0,1,.74,1.68v2.31a2.47,2.47,0,0,1-.74,1.68,2.23,2.23,0,0,1-1.63.68H67.21v10.52a2.23,2.23,0,0,1-.68,1.63,2.48,2.48,0,0,1-1.68.74H62.53a2.48,2.48,0,0,1-1.68-.74,2.22,2.22,0,0,1-.68-1.63V184.56H49.64a2.22,2.22,0,0,1-1.63-.68,2.47,2.47,0,0,1-.73-1.68v-2.31a2.48,2.48,0,0,1,.74-1.68,2.23,2.23,0,0,1,1.63-.68H60.16V167a2.24,2.24,0,0,1,.68-1.63,2.49,2.49,0,0,1,1.68-.74h2.31a2.49,2.49,0,0,1,1.68.74,2.22,2.22,0,0,1,.68,1.63Z"/><path class="c" d="M418.65,119.33h10.52a2.22,2.22,0,0,1,1.63.68,2.47,2.47,0,0,1,.74,1.68V124a2.47,2.47,0,0,1-.74,1.68,2.23,2.23,0,0,1-1.63.68H418.65V136.9a2.23,2.23,0,0,1-.68,1.63,2.48,2.48,0,0,1-1.68.74H414a2.48,2.48,0,0,1-1.68-.74,2.22,2.22,0,0,1-.68-1.63V126.38H401.08a2.22,2.22,0,0,1-1.63-.68,2.47,2.47,0,0,1-.73-1.68V121.7a2.48,2.48,0,0,1,.74-1.68,2.23,2.23,0,0,1,1.63-.68H411.6V108.81a2.24,2.24,0,0,1,.68-1.63,2.49,2.49,0,0,1,1.68-.74h2.31a2.49,2.49,0,0,1,1.68.74,2.22,2.22,0,0,1,.68,1.63Z"/><path class="c" d="M228.59,216.76h10.52a2.22,2.22,0,0,1,1.63.68,2.47,2.47,0,0,1,.74,1.68v2.31a2.47,2.47,0,0,1-.74,1.68,2.23,2.23,0,0,1-1.63.68H228.59v10.52a2.23,2.23,0,0,1-.68,1.63,2.48,2.48,0,0,1-1.68.74h-2.31a2.48,2.48,0,0,1-1.68-.74,2.22,2.22,0,0,1-.68-1.63V223.81H211a2.22,2.22,0,0,1-1.63-.68,2.47,2.47,0,0,1-.73-1.68v-2.31a2.48,2.48,0,0,1,.74-1.68,2.23,2.23,0,0,1,1.63-.68h10.52V206.25a2.24,2.24,0,0,1,.68-1.63,2.49,2.49,0,0,1,1.68-.74h2.31a2.49,2.49,0,0,1,1.68.74,2.22,2.22,0,0,1,.68,1.63Z"/><path class="d" d="M195.41,50a53.51,53.51,0,0,1,9.44-1.29q3-.21,8.36-.21,15.44,0,27,7.94,9.87,6.65,18.23,19.52h22.31a10.31,10.31,0,0,1,5.47,1.5A9.58,9.58,0,0,1,290,81.79l10.72,21a5.29,5.29,0,0,1-.43,5,4.75,4.75,0,0,1-4.29,2.47H275.63q2.36,5.15,3.86,8.15a3.19,3.19,0,0,1,.21,2,3.35,3.35,0,0,1-.86,1.82l-13.73,13.73a3.35,3.35,0,0,1-1.82.86,3.19,3.19,0,0,1-2-.21q-3.43-1.72-8.15-3.86v20.37a4.75,4.75,0,0,1-2.47,4.29,4.91,4.91,0,0,1-5,.21l-21.23-10.51a9.83,9.83,0,0,1-4.08-3.75,10.31,10.31,0,0,1-1.5-5.47V115.68q-13.08-8.36-19.52-18a47.64,47.64,0,0,1-7.94-27.24q0-5.58.21-8.36a53.51,53.51,0,0,1,1.29-9.44A3,3,0,0,1,195.41,50Zm30.24,22.52a10.25,10.25,0,1,0-3,7.29A9.93,9.93,0,0,0,225.66,72.57Z"/><path class="d" d="M505.9,255.84H291.17a39.82,39.82,0,0,1,27.19-21.1A21,21,0,0,1,317,229.5a20.78,20.78,0,0,1,18-23.19,20,20,0,0,1,2-.16,56.83,56.83,0,0,1,109.09-12.68,32.41,32.41,0,0,1,47.89-14A250.45,250.45,0,0,1,505.9,255.84Z"/><line class="b" x1="2.26" y1="331.15" x2="510.3" y2="331.15"/><path class="c" d="M136,352.09l.41,0,.37.09.37,0,.37.14.32.09.37.14.37.14.37.14.32.18.37.18.32.18.32.18.32.18.32.23.27.18.28.23.55.46.27.27.28.23.28.28.27.23.5.6.23.28.23.27.27.28.23.32.18.28.23.32.18.32.18.32.18.32.14.32.18.32.14.32.14.32.09.32.14.32.09.37.09.32.09.32.09.32,0,.37.09.37,0,.37,0,.37,0,.37,0,.18v.37l0,.14v.69l-11.14,4v-.32l0-.32,0-.32,0-.32v-.55l0-.28v-.46l0-.23,0-.27,0-.14v-.09l-.09-.27-.09-.23v-.09l0,0,0-.14-.09-.23-.09-.14,0-.14-.18-.23-.09-.09-.09-.14-.18-.18-.23-.18-.14-.09-.14-.09-.27-.14-.28-.14-.14,0-.18-.09-.14,0-.18,0-.32-.09h-.18l-.14,0H132l-.18,0h-.92l-8.07,0-.37,0h-.41l-.37,0-.32,0-.37.09-.32.09-.32.09-.32.09-.28.14-.23.14-.14.09-.14,0-.09.09-.09.09-.14.09-.09.14-.09.09,0,.14-.18.27-.09.14,0,.14-.14.28-.14.32,0,.14,0,.18-.09.32,0,.28,0,.18v.28l0,.14v.55l.14,30.2V399l0,.55v.23l0,.23v.5l0,.23v.23l0,.23v.18l0,.18,0,.23v.18l0,.18,0,.14.09.18.09.32,0,.14.09.14,0,.09.09.14.09.14.09.09.09.09.09.09.14.09.09.09.09,0,.14.09.23.09.23.09.28.09.28,0,.27.09.28,0h.28l.28,0h.09l10.13-.09h0l.14,0h.23l.14,0h.18l.18,0H133l.09,0h.14l.09,0,.14,0,.23-.09.14,0,.09-.09.09,0,.14-.09.09-.09.14-.09.09-.09.09-.14.14-.09.14-.14.09-.14.09-.14.09-.14v0h0l0-.09v-.09h0v0l.09-.18v0l0-.09,0-.18,0-.14,0-.09v-.09l0-.18,0-.18v-1.7l0-.87v-1.83l-6.92,0,.09-11.36H147.2v4.72l0,.64v6.74l0,.23V399l0,.78,0,.78,0,.83,0,.82v.18l0,.23,0,.37v.18l0,.23,0,.37-.09.41,0,.14v.14l0,0v.09l0,.09,0,.18-.09.37-.14.32-.09.37-.14.32-.09.32-.14.32-.14.32-.14.27-.09.32,0,.09,0,.09,0,0v0l-.14.28-.14.28,0,.14-.09.14,0,.14-.09.14-.18.28-.14.23-.18.28-.18.23-.18.28-.18.28-.23.23-.23.28-.23.28-.23.28-.28.27-.27.28-.23.23-.28.23-.23.23-.28.23-.28.18-.23.18-.28.14-.23.18L140,414l-.28.14-.27.18-.32.14-.32.18-.32.14-.32.18-.32.14-.32.09-.32.14-.32.09-.27.09-.32,0-.28,0-.28,0h-.69l-.23,0h-1.65l-.18,0h-4.58l-.64,0h-5.64l-.41,0h-2.57l-.37,0-.37,0-.37,0-.37,0-.32-.09-.32-.09-.69-.18-.69-.23-.37-.14-.32-.14-.37-.14-.32-.14-.37-.14-.32-.14-.32-.18L113,414l-.28-.18-.32-.18-.28-.23-.27-.18-.28-.23-.23-.18-.27-.23-.28-.23-.46-.46-.5-.46-.23-.23-.23-.28-.18-.28-.23-.27-.18-.28-.18-.28-.18-.32-.14-.28-.18-.32-.14-.32-.14-.32-.14-.32-.09-.32-.14-.32-.09-.32-.14-.32-.18-.69-.09-.32-.09-.28-.14-.64-.09-.28,0-.28,0-.32,0-.27-.09-.28V403l0-.28,0-.23V402l-.14-35.1v-.37l0-.32v-.32l0-.32v-.28l0-.27v-.28l0-.28v-.23l0-.23v-.23l0-.23v-.18l0-.18,0-.18v-.18l.09-.32,0-.32.09-.32.09-.32.14-.32.09-.32.28-.64.32-.69.32-.6.37-.64.37-.6.23-.32.18-.32.23-.27.23-.28.28-.32.23-.28.28-.28.28-.23.28-.28.27-.28.28-.23.32-.23.28-.23.32-.18.32-.23.32-.18.64-.32.69-.32.64-.32.69-.23.32-.14.37-.09.37-.09.37,0,.37-.09.37,0h.82l1.51,0h.78l.78,0h.09l11.13,0,.78.09h.41l.41,0,.73.09Z"/><path class="c" d="M251.75,404.19l.14-.09.09,0,.09,0,.14-.09.18,0,.14-.14.09,0,.09,0,.14-.09.14-.14.14-.14,0,0,0-.09,0-.09,0,0,.09-.09,0-.14.09-.18,0-.18.09-.23.09-.28v-.14l0-.18v-.14l0-.23V401l0-.23V400l0-.32v-.32l0-6,0-.28,0-.23-.09-.28,0-.23-.09-.23-.09-.18-.09-.23-.14-.18-.14-.18-.14-.18-.14-.18-.14-.18-.18-.14-.14-.18-.18-.14-.18-.14-.18-.09-.18-.14-.18-.09-.23-.09-.23-.09-.23,0-.28,0-.23,0-.5,0-.46,0h-1l-5.68-.09,0-11.41h7l.27,0h.28l.28,0h.28l.09,0h.14l.23,0,.23-.09.23,0,.09,0,.09,0,.23-.09.18-.09.18-.09.14-.14h0v0h0l.09,0,.18-.14.14-.14.14-.18v0l0,0,0,0,.14-.18v0l0,0,0,0,0-.18,0-.14v-.18l0-.14,0-.64,0-.64v-7.61l0-.14,0-.28V366l0-.23,0-.23-.09-.18-.09-.23-.14-.23-.09-.18-.18-.18,0-.09-.09,0,0-.09-.09-.09-.14-.09-.18-.14-.18-.09-.18-.09-.23-.09-.18-.09-.18,0-.14,0-.18,0h-.14l-.09,0H241l-.32,0h-1.15l-.09,0-.46,0-.41,0-.23.09-.23.09-.41.18-.18.09-.09,0-.09.09-.18.14-.14.14-.18.18-.14.18-.09.18-.14.23-.09.18-.09.28,0,.23-.09.23,0,.23,0,.28,0,.28v.27l0,.55,0,.55-.14,1.1-11.18-3.07,0-.18v-.23l0-.18v-.23l0-.18,0-.18v-.41l0-.41,0-.41,0-.37,0-.41,0-.23v-.18l.09-.18,0-.18L225,362l0-.14,0-.18,0-.18,0-.18.09-.28.09-.27.09-.23.09-.23.09-.28.09-.23.23-.46.23-.46.23-.41.28-.41.27-.37.28-.41.28-.37.32-.37.32-.37.32-.37.37-.32.37-.32.18-.18.18-.14.41-.28.37-.27.41-.28.46-.28.41-.28.46-.18.46-.18.46-.18.92-.28,1-.23.46-.14.5-.09.5,0,.5,0,.5,0,.5,0,.5,0,.46,0h.83l.18,0h3.39l.32,0H250l.32,0h1.15l.27,0h.73l.23,0h.55l.18,0h.46l.14,0h.32l0,0h.09l1,.28.5.14.46.14.5.14.41.14.23.09.23.09.41.23.41.23.37.18.37.23.37.28.37.23.32.28.32.28.37.32.32.32.32.37.32.37.32.41.28.37.27.37.23.41.28.37.18.41.23.41.18.41.18.41,0,.14v0l0,0,0,.09v0l0,0,0,.23v0l0,0,0,.09V361l0,0,0,.14,0,.18,0,.18,0,0v.18l0,0V362l0,0v.18l0,0v0l0,.18,0,.18.14.46v.23l0,.23.09.5.09.5,0,.5,0,.5,0,.55,0,1.05,0,1.05v3.67l0,.46v.46l0,.5,0,.46,0,.28v.23l-.09.5,0,.09V375l0,.23,0,.23v.14l0,0v.09l0,.23v.09l0,.09,0,.18v.18h0v0l0,.23-.09.23,0,.14,0,.09,0,.23-.18.46-.14.41-.18.46-.23.41-.09.23-.14.18-.18.46-.28.37-.23.41-.28.41-.27.46-.18.18-.14.23-.14.14-.14.18-.14.18-.14.14-.14.14-.09.14-.09,0,0,.09h0v0l0,0,0,.09,0,.09v.18l0,0,0,.09h0l0,0,.09.09.5.6.23.28.23.28.28.27.23.32.27.37.23.37.27.41.23.41.23.41.23.41.18.41.18.41.18.46.18.46.09.23,0,.23.14.5,0,.23,0,.28.09.5v.09l0,0v.87l0,.28v9.26l0,.09v.37l0,.18v.23l0,.18v.14l0,.18v.14l0,.09v.28l0,.14,0,.18,0,.14v.18l0,.09v.14l0,.14,0,.14,0,.14-.09.18,0,.18,0,.18-.18.41,0,.18-.09.23-.18.46-.09.23-.09.23,0,.14,0,.09-.09.23-.23.46-.18.46,0,.09,0,.09-.14.23,0,.09,0,.09-.14.18-.23.41-.28.37-.14.18-.18.18-.28.37-.32.37-.32.28-.14.18-.14.14-.32.23-.09.09h0l0,0-.14.14-.37.28-.18.09-.14.18-.18.09-.18.14-.18.09-.23.14-.41.23-.41.23-.23.09-.14.09-.09,0-.23.09-.23.09-.5.18-.23.09-.23,0-.46.14h-.14l0,0h0l-.23,0-.5.14-.46.09-.5.09-.46,0-.5.09-.46,0h-1.37l-.18,0h-5.77l-.41,0h-1.6l-.37,0h-4.12l-.37,0h-.82l-.09,0h-.18l-.41-.09-.41,0-.41,0-.37-.09-.18,0-.18,0-.23,0-.23,0-.18-.09-.23,0-.23,0-.23-.09-.5-.18-.41-.18-.41-.18-.37-.18-.18-.09-.18-.09-.18-.14-.09,0-.14,0-.18-.14-.09,0-.09,0-.23-.14-.23-.09-.18-.18-.23-.14L230,413l-.23-.14-.37-.28-.37-.32-.18-.18-.18-.14-.32-.32-.32-.37-.28-.32-.32-.41-.28-.37-.23-.37-.23-.41-.14-.18-.09-.23-.23-.41-.23-.46-.18-.46-.14-.41-.14-.46-.18-.5-.09-.46-.09-.23,0-.23-.14-.5,0-.5-.09-.46,0-.55,0-.5,0-.55,0-.55,11.27-3.57.09.46v.23l0,.23,0,.41,0,.5.09.46.09.5.14.46.14.5.09.28.09.23,0,.09,0,.14.14.18.14.23.18.18.14.14.09.09.09.09.18.14.23.14.18.09.23.14.23,0,.23.09.23,0,.23,0h.09l0,0h.37l.92,0h1.42l7.93.09.37,0,.37,0,.37-.09Z"/><path class="c" d="M315.66,351.86l11.64,0,.27,37.07h8.34v11.73h-8.39v15.21l-11.82,0V400.53l-20.85.09-.14-11.27,20.94-37.44ZM308.1,389l7.61-.23-.09-13.2L308.1,389Z"/><path class="c" d="M400.28,354.24l.37.32.32.23.55.46.6.5.28.28.32.27.14.14.14.14.32.28.23.32.14.14.14.18.14.14.14.18.23.37.09.18.14.18.23.37.18.37,0,.09,0,.09.09.23.09.18.09.18.14.37.14.37.09.18,0,.18,0,.09v.09l0,.18.09.37,0,.14,0,.18v.18l0,.18,0,.14v.14l0,.18v.37l0,0v.78l0,10.68v.55l0,.41v.41l0,.41v.23l0,.23,0,.18v.23l0,.18V378l-.09.41,0,.23v.18l-.09.23v.09l0,.09,0,.09v.14l-.09.18,0,.09v0l0,.09-.09.18-.18.37-.18.37-.09.18-.09.14-.14.18-.09.18-.09.14-.09.18-.14.14,0,.09v0l0,0,0,0,0,.09-.14.14-.18.27-.09.09-.09.14,0,.09h0v.14l0,0v0h0l0,0,0,0,0,.09.09,0,0,0,.09.09.09.09.09.09.18.18.09.14.14.14.09.09.14.18.14.14.09.18.09.18.14.18.09.18.09.18,0,.23.09.23.09.18,0,.23.14.46,0,.18,0,.23v.09l0,.09,0,.23.09.41,0,.41,0,.41,0,.41v.41l0,.37,0,.41,0,.37V398l0,.41v2.38l0,.28v2.43l0,.18v.92l0,0v.09l0,.09v.14l0,.09v.18l0,.14v.18l-.09.32-.09.37-.09.37-.09.37-.09.37-.14.37-.14.37-.18.37-.18.37-.14.37-.18.37-.18.32-.18.28-.18.32-.18.28-.23.32-.23.32-.28.28-.23.32-.32.37-.27.32-.32.28-.28.32-.28.28-.18.14,0,0,0,0h0l-.28.28,0,0h0l-.09.09-.14.14-.14.09-.18.14,0,0,0,0h0l-.18.14-.14.09-.18.09-.18.14-.18.09-.18.09-.18.09-.23.09-.18,0-.23.09h-.09l-.09,0h-.14l-.09,0h-.14l-.09,0-.23,0h-.78l-.14,0h-7.24l-.5,0H369.94l-.87,0h-3.76l0-11,3.62,0-.14-41.33-3.53,0,0-11.5,26.35-.14.32,0h.69l.37,0,.41,0,.41,0,.46.09.41,0,.46.09.46.09.41.14.41.09.46.14.41.09.41.18.41.14.37.18.37.14.37.18.32.18.32.23Zm-8,9.49-.14-.09-.23-.09-.18-.09-.18,0-.23,0-.18-.09-.23,0h-.23l-.18,0-.23,0H389l-8.8.14.14,14.25h10.54l.23,0,.23,0h.18l.23-.09.18,0,.23,0,.09,0,.09,0,.09,0h.09l.18-.09.18-.09.18-.14h0l0,0,.09,0,.14-.14.18-.14.14-.09.09-.09.09-.09,0,0L394,376l0-.09,0,0,.09-.09,0-.09.09-.18,0-.09,0,0v0l0,0v0l0-.09V375l0,0,0-.09v0l0,0v-.14l0-.09v-.23l0-.14,0-.23v-.92h0v-.14l0-.37v-.78l0-.37v-3.71l0-.23v-.37l0-.18v-.37l0-.14,0-.28,0-.14v-.09l0-.09,0-.09,0,0v-.09l-.18-.23-.18-.23L394,365l-.14-.09-.23-.23-.28-.23-.28-.23-.18-.09-.28-.23Zm-11.91,41.06,9.44,0h.6l0,0h.5l.14,0h.18l.18,0,.18,0h.14l.18,0,.14,0,.18,0,.32-.09,0,0,.09,0,.18,0,0,0,0,0h0l.09,0,.09,0,.14-.09.14-.14,0,0,.09,0,.09-.14.14-.14,0,0v0h0v0l.14-.14v-.09h0l0-.09.09-.14.09-.18,0-.09,0-.09,0-.23,0-.14,0-.18.09-.18,0-.18v-.23l0-.18,0-.18v-.23l0-.18v-.46l0-.18v-.5l0-.23v-5.91l0-.09V393l0,0v-.14l0-.09v-.14l0-.09v0l0-.14,0,0v-.09l0-.14,0-.14,0-.14,0-.14-.14-.32-.09-.14-.09-.14-.09-.14-.09-.09-.23-.28-.23-.23-.28-.23-.32-.18-.18-.09-.14-.09-.18-.09-.18-.09-.18-.09-.18,0-.18-.09-.18,0-.23-.09-.18,0-.23,0-.23,0h-.23l-.18,0h-.23l-.23,0-9.3,0Z"/><rect class="c" x="168.52" y="378.08" width="45.63" height="11.49"/><path class="c" d="M27.56,287.64l-17.76.09-.11,9.14H22.8v7.19l-13,0V313l18-.11v7.28l-25.36.14-.17-40.08H27.59Z"/><path class="c" d="M66.88,287.55l-3.81,0-.26,0h-1l-.09,0-.17,0-.17,0-.12,0h-.06l-.17.06-.14.06-.09,0-.06.06-.14.06-.12.09-.09.09-.11.11-.09.09-.09.11-.14.2-.12.2-.09.2-.09.2v.09l0,.09,0,.11v.2l0,.11v0l-.06,1.86v.69l0,.2,0,.2,0,.17,0,.2.06.17.06.14.06.14.06.14.09.12.09.11.09.11.09.11.11.09,0,0,.06.06.12.06.09.09.06,0,0,0h0l.09.06.09.09H61l0,.06.11.06.17.09,0,0h0l0,0,.09,0,.09,0,.09,0,.09.06h.09l.06,0H62l0,0h0l0,0h.06l.06,0h.06l.06,0h0v0h.11l0,0h0l7.45,3,.29.09.29.14.14.06.14.06.14.09.17.06.32.17.14.06.17.09.17.09.17.09.17.09.17.11.17.09.17.09.34.23.34.2.14.11.17.12.29.26.17.11.14.12.29.29.26.29.14.11.14.14.23.32.11.14.12.14.11.17.11.17.09.14.11.17.2.34.09.17.09.2.09.17.06.17.09.2.06.17.14.4.06.17.06.2,0,.2.06.23.06.17,0,.23,0,.2.06.23,0,.2v.23l0,.2,0,.23v4.9l0,.2v.23l0,.2,0,.2,0,.2-.06.23,0,.2,0,0v.06l0,.09L77,314l0,.2-.09.2-.06.2-.06.17-.09.2-.09.17-.06.17,0,.06,0,0-.06.09-.09.17-.09.17-.06.09-.06.09-.09.17-.06.06-.06.09-.06.09-.06.09-.06.06-.06.09-.11.14-.11.17-.26.29-.14.14-.14.14-.11.11-.09.09-.06.06-.32.29-.29.26-.17.14,0,0-.06,0-.06.06-.34.29-.09.06-.09.06-.14.14-.17.11-.17.11-.17.09-.17.11-.14.09-.17.09-.14.09-.14.06-.17.06-.14.06-.14.06-.14,0-.12,0-.14,0-.14,0h-.11l-.26,0h-.23l-.23,0h-.2l-.09,0h-.37l-.06,0h-.17l-8,.06h-.06l-.26,0-.23,0-.23,0-.23,0-.23-.06-.23,0-.2-.06-.23,0L59,320l-.2-.06-.2-.06-.2-.06-.2-.09-.2-.06-.17-.09-.17-.09-.2-.09-.17-.09-.17-.09-.17-.09-.17-.11-.17-.09-.14-.12-.17-.09-.29-.23-.14-.11-.14-.11-.14-.11-.14-.12-.11-.11-.14-.14-.12-.11-.14-.14-.11-.14-.11-.14-.12-.14-.11-.14-.23-.32-.11-.17-.09-.14-.2-.34-.09-.17-.12-.17-.17-.37-.09-.17-.06-.2-.09-.17-.09-.17-.06-.17-.06-.17-.06-.17-.06-.14-.06-.17,0-.14-.06-.14,0-.14,0-.14,0-.14,0-.14v-.11l0-.26,0-.2,0-.11V312l0-.17v-.34l6.79-2.12v.86l0,.26v.23l0,.26,0,.12,0,.09,0,.2.06.2.06.17.06.14.09.17.06.12.09.11.09.11.06,0,.06.06.09.09.11.06.09.09.11.06.09.06.11.06.11,0,.11.06.09,0,.11,0,.11,0,.12,0,.23,0h.26l6.39,0,.14,0,.11,0,.11,0,.09,0,.09,0,.09,0,.06,0H69l.11-.09,0,0,.06-.06.06,0v0h0l0,0,.11-.09.06-.09,0-.06,0,0,0,0,0-.06.06-.09.06-.09v0h0l0-.06,0-.09,0-.06,0,0,0-.09v0l0,0v-.06l.06-.11,0-.09v-.11l0-.09,0-.12,0-.11v-.83l0-.09v-1.43l0-.06v-.95l0-.17-.06-.2,0-.11,0-.09-.06-.12,0-.09-.11-.2-.06-.11-.06-.09-.06-.11-.09-.11-.12-.09-.09-.11-.11-.09-.14-.09-.14-.11-.14-.06-.17-.11-.17-.09-.17-.09-.2-.06-.23-.09-.2-.09-.26-.06-.23-.09-8.37-3.29-.26-.14-.23-.14-.14-.09-.11-.06-.14-.09-.11-.06-.12-.09-.14-.09-.26-.14-.11-.09-.14-.09-.26-.14-.14-.11-.14-.09-.11-.09-.14-.12L56,300l-.11-.11-.14-.12-.14-.14-.11-.11-.14-.14-.12-.14-.14-.14-.14-.17-.11-.17-.14-.17-.12-.17-.29-.34L54,297.7l-.23-.34-.2-.34-.17-.37-.17-.34-.14-.34-.14-.37-.06-.17-.06-.17-.06-.17,0-.2-.06-.17,0-.2-.06-.17v-.2l-.06-.2v-.2l0-.2v-.2l0-.23v-.69l-.06-3.09v-.09l0,0V289l0-.06v-.26l0-.09v-.2l0-.11v-.23l0-.14v-.29l0-.11,0-.17,0-.14,0-.14.06-.17,0-.17.06-.14,0-.17.06-.17.09-.17.06-.17.09-.17.09-.17.06-.17.09-.2.2-.34.09-.2.11-.17.09-.17.11-.14.11-.17.11-.17.12-.14.11-.14.11-.14.12-.14.26-.29.26-.26.12-.11.14-.11.29-.23.29-.23.17-.09.14-.11.17-.12.14-.09.34-.17.34-.17.34-.17.2-.09.17-.06.2-.09.2-.06.17-.06.23-.06.2-.06.2-.06.2,0,.23-.06.23,0,.23,0,.23,0,.23,0,.23,0,.26,0,7.31,0h.23l.23,0h.23l.23,0,.2,0h.23l.23.06.23,0,.2,0,.2.06.23,0,.2.06.2.06.23.06.2.09.2.06.37.14.2.09.2.09.17.09.17.09.17.09.17.11.32.2.17.09L74,282l.14.12.17.11.12.11.14.11.14.12.11.11.11.14.14.14.12.11.11.14.11.14.11.14.09.14.11.14.11.14.09.17.09.17.12.14.09.17.09.17.09.17,0,.09,0,.09.14.32.14.34.11.32.11.34.06.14.06.17,0,.14,0,.17.06.17v.06l0,.09,0,.14,0,.17v.06l0,.09,0,.14v.14l0,.14v.14l0,.14v1.06l-7,1.81,0-.26v-.92l0-.2,0-.2,0-.17,0-.2,0-.17-.06-.17-.06-.17-.06-.14L70,288.7l-.06-.14-.09-.14-.06-.06,0-.06-.11-.11-.12-.12L69.4,288l-.14-.09-.09,0-.09,0-.09-.06-.06,0-.11,0-.06,0-.2-.06-.2,0-.23,0H68l-.09,0H66.88Z"/><path class="c" d="M119,280.42l.26.06.26.06.29.09.26.06.26.09.26.09.23.11.26.09.23.12.26.14.23.11.26.11.23.14.23.12.2.14.23.14.23.14.2.17.23.14.2.17.17.17.17.17.17.17.17.17.29.37.14.17.17.2.14.2.14.2.14.2.14.23.11.23.14.23.11.23.14.23.12.23.09.26.11.23.09.26,0,.11.06.14,0,.09.06.14,0,.11,0,.06v.06l0,0v.06l0,.11,0,.06v.06l0,.09,0,.11,0,.09,0,.09,0,.09v.09l0,.09v.09l0,.09,0,.12,0,.14v.11l0,.06v.11h0l-7.08,2.32,0-.29L120,291l-.06-.26-.06-.26-.06-.26-.06-.23-.11-.26-.09-.23-.12-.2-.06-.11-.06-.09-.06-.12-.06-.09-.06-.09-.06-.09-.14-.17-.06-.09-.06-.06-.09-.09-.06-.06-.14-.11-.09-.06-.09-.06-.09-.06-.09,0-.11-.06-.09,0-.11-.06-.11,0-.11,0-.14,0-.11-.06h-.14l-.14,0-.14,0-.14,0h-.17l-4.18-.09,0,0h-.29l-.29,0-.11,0-.14,0-.26.06-.23.09-.26.09-.23.12-.12.06-.11.06-.11.06-.11.09-.12.06-.09.09-.09.09-.09.09-.11.09-.06.09-.09.09-.06.09-.14.2-.06.11-.06.11-.06.12-.06.11-.09.23L109,290l-.09.26,0,.26,0,.26,0,.26v.57l0,0,.11,16.68,0,.29v.29l0,.57v1.15l0,.14v.14l0,.14v.14l.06.11,0,.11,0,.14.06.12.06.11.06.11.09.09.06.11.09.11.09.09.09.09.11.09.09.09.11.06.23.17.2.11.12.06.14.06.11,0,.11.06.12,0,.14.06.26.06.14,0h.14l5.3-.09.17,0h.11l.14,0,.14,0,.06,0h.06l.14,0,.11,0,.06,0H118l.06,0h0l.06,0h0l0,0,.09,0,.06,0,0,0,.09,0,.09-.06.09,0,.06-.06.14-.12,0-.06,0,0,.09-.06.06-.09.06-.06.06-.09,0,0,.06-.06.06-.09.06-.09.06-.09.06-.09.06-.11.06-.11.06-.09.06-.11,0-.11.06-.12,0-.06v0l0,0,0-.14.06-.11,0-.12,0,0v0l0-.09,0-.11v-.06l0,0v-.06l0-.11,0-.14,0-.12v-.09l0-.06,0-.14,0-.14v-.14l6.79,2.12-.06.29v.09l0,0v.17l-.06.29,0,.11,0,.14,0,.06,0,.09,0,.14,0,.11,0,.14-.09.26,0,.06,0,.06,0,.14-.12.23-.09.26-.11.23-.09.26-.11.23-.11.23-.12.23-.11.23-.06.09-.06.12-.11.23-.14.2-.11.2-.14.2-.09.09-.06.11-.14.2-.09.09-.06.09-.14.17-.17.2-.09.06-.09.11-.09.06-.09.09,0,.06-.06,0-.09.09-.17.17-.11.06,0,0-.06.06-.2.14-.2.14-.2.14-.23.14-.2.14-.23.11,0,0h0l0,0-.11.06-.2.11-.2.11-.43.2-.23.09-.2.09-.2.06-.2.09-.4.14h-.06l-.06,0h-.09l-.06,0h-.09l-.09,0h-.09l-.09,0H119l-.06,0h-.32l-.06,0h-.26l-.14,0h-.4l-.09,0h-.89l-5.21.06h-.89l-.09,0h-.17l-.11,0h-.09l-.11,0-.11,0-.12,0h-.09l-.14,0-.12,0-.11,0h0l0,0h-.09l-.11,0L109,320l-.26-.06-.29-.09-.23-.11-.26-.09-.26-.12-.26-.11-.23-.11-.26-.11-.23-.14-.23-.14-.23-.14-.23-.14-.2-.14-.2-.14-.2-.17-.2-.17-.2-.17-.2-.17-.17-.17-.2-.2-.17-.2-.2-.2-.14-.23-.2-.2-.14-.23-.17-.23-.14-.26-.14-.23-.14-.26-.14-.26-.11-.26-.14-.26-.09-.26-.11-.26-.09-.26-.11-.26-.09-.23-.06-.23-.09-.26-.06-.23-.06-.23-.06-.26,0-.26-.06-.23,0-.26,0-.26v-.29l0-.09v-.32l-.09-20.74v-.06l0-.26,0-.23.06-.23,0-.2,0-.23.06-.2,0-.2.06-.17,0-.17.06-.2.06-.17,0-.14.06-.14.06-.14.06-.14.06-.11.23-.49.26-.49.26-.49.29-.46.17-.23.14-.23.17-.23.17-.2.2-.2.17-.23.23-.2.2-.17.23-.2.23-.2.2-.14.23-.17.23-.14.2-.14.23-.11.2-.12.46-.23.43-.2.46-.17.46-.14.23-.09.23-.09.23-.06.26-.06.26-.09.23-.06.29,0,.26-.06.29-.06.26,0,.29,0,.29,0h6.16l.14,0H118l.14,0h.37l.12,0h.09l.09,0h.09Z"/><path class="c" d="M160.8,280.25h7l9.28,40-7.08.06-1.49-6.53-8.14.06-1.49,6.48-7,.06Zm3.5,14-.11,0-.06.06-.06,0-.06.06,0,0,0,.06,0,.06v.06l-2.26,11.63v.09l0,.06v.09l0,0,0,0,0,0v.06l.06,0,.06.09,0,0,.06,0,0,.06,0,0h.06l.06,0h4.41l.11,0h.09l.11,0h.06l.06,0H167l.06,0,0,0,.06,0,0,0,.06-.06,0,0,0-.06,0-.06,0,0v0l0,0v-.2l-1.26-5.84-1.26-5.82-.09-.12-.06-.09-.09-.06-.09-.06-.09,0h-.14Z"/><path class="c" d="M226.71,287l.06.26,0,.26v.12l0,.11v.11l0,.12v.06l0,.06v.23l0,0v.17l0,.09v.17l0,.06v.26l0,0v.2l-.06,5v.2l0,.14v.34l0,.11v.4l0,.23,0,.23-.06.23,0,.26v.11l0,.11,0,.12,0,.11-.06.2v0l0,.06,0,.09-.06.17-.06.17-.09.17-.09.2,0,.09,0,.11-.11.2-.09.17,0,.09-.06.11-.11.17,0,.09-.06.11-.11.17-.11.17-.06.09-.06.09-.11.17-.11.17-.11.17-.14.14-.11.14-.09.09-.09.09-.09.09-.09.09-.17.17-.2.14-.17.17-.17.14-.2.14-.17.11-.09.06-.09.09-.2.11-.09.06,0,0h0v0l-.06,0-.09.06-.11.06-.09.06-.12.06-.09,0-.06,0-.06,0-.12.06-.11,0-.23.11-.23.09-.23.09-.11.06H221v0h0l-.23.09-.26.09-.11,0-.12,0-.26.06-.29.06-.26.06-.26.06-.54.06-.57.06-.57.06h-.34l-.11,0h-.2l-.12,0h-.06l-7.82,0,.06,16.7h-7.31l0-40.08h16.65l.23,0h.26l.26,0,.23,0,.26,0,.23.06.23,0,.23,0,.23.06.2.06.23.06.2.06.23.06.2.09.2.09.2.09.17.06.2.12.17.09.2.11.17.09.17.11.17.11.17.12.14.14.17.11.14.14.14.14.17.11.14.17.11.14.14.14.14.14.11.14.12.14.14.14.09.14.14.17.09.14,0,0,0,0,.06.09.09.11.12.17.09.14,0,0v0l.06.09.09.14.06.06,0,.09.09.14.06.11.09.14.06.14.06.14.06.14.06.14.06.14,0,.11,0,.09v0l0,0,0,.14.06.14,0,.14,0,.12Zm-7,3.09,0-.11,0-.14,0-.11-.06-.14-.06-.11,0-.14-.06-.11-.06-.11-.14-.23-.06-.11-.09-.12-.09-.11-.09-.11-.2-.2-.09-.11-.14-.11-.11-.09-.14-.06-.14-.09-.17-.06-.09-.06-.09,0-.2,0-.17-.06-.2,0-.11,0h-.11l-.23,0-.26,0h-.83l-6.68-.06,0,8.88,6.9,0h.66l.09,0h.11l.2,0h.17l0,0h.17l.17-.06h.09l.09,0,.09,0h0l0,0h.06l0,0,.09,0,.09,0,.09,0,.14-.09.06,0,.09,0,.06-.06.09,0,.12-.09,0,0,0,0,.06-.06,0,0h0l0,0,.06,0,.09-.11h0l0,0,.06-.06.09-.11.06-.06v0h0v0l.09-.09.06-.11.06-.11.06-.12,0-.06v0l0,0,0-.11v-.06l0-.06v-.17l0,0v-3.9Z"/><path class="c" d="M276.49,287.64l-17.76.09-.11,9.14h13.12v7.19l-13,0V313l18-.11v7.28l-25.36.14-.17-40.08h25.33Z"/><path class="c" d="M361.76,280.25v7.16l-18.11,0,.11,9.4,13-.09,0,7.28H343.65l.06,16.3-7.31,0-.14-40.06Z"/><path class="c" d="M405.38,280.82l.23.09.11,0,.11.06.23.09.23.12.2.09.23.11.23.12.2.14.2.11.23.14.17.14.2.14.2.17.2.14.17.17.17.2.17.17.17.17.14.2.17.2.14.17.14.2.14.23.14.2.12.23.14.23.11.2.11.23.09.23.11.23.09.23.09.26.09.23.06.23.09.23,0,.26.06.23,0,.26,0,.23,0,.26v.23l0,.2v.54l0,.12v.66l0,5.21,0,.17v.46l0,.14v.14l0,.14v.14l0,.14,0,.14v.06l0,0v.2l0,.11,0,.09v.06l0,0v.11l0,.11,0,.14-.06.12,0,.14,0,.11,0,.11-.06.12,0,.14-.06.11,0,.11-.06.12,0,0,0,.06v0l-.06.09,0,.12-.06.11h0v.06l0,.06-.06.09-.06.11-.09.11-.06.09-.06.11,0,.06-.06,0-.06.12,0,.06,0,0-.09.11-.06.09-.09.09-.06.09,0,0h0l0,.06,0,.06h0v0l-.09.09-.09.09-.06.09-.09.06-.09.09-.17.14-.17.14-.09.09,0,0-.06,0-.06.06,0,0-.12.06-.09.09-.09.09-.23.12-.09.09-.11.06-.11.09-.12.06-.2.11-.23.11-.23.12-.2.09-.23.11-.23.09-.2.06-.11,0-.12,0-.2.09h-.12l-.09,0-.09,0-.12,0-.17,0-.17.06h-.09l-.06,0-.17,0h-.26l-.11,0h-.57l8.05,17.13h-7.91l-8.28-17h-2l0,17.08H386l-.06-40.06,14.73,0,.37,0h.66l.34,0h.32l.29,0,.32,0,.29,0,.29.06.29,0,.29.06.29.06.26.06.23.06.26.09Zm-2.78,7.08-.26-.06-.23-.06-.14,0-.12,0-.26,0-.29,0h-8l0,8.57,7.33,0H402l.09,0,.09,0h.09l.09,0,.09,0,.09-.06.12,0,0,0h0v0l.09-.06.09-.06.11-.06.14-.14.09-.06.09-.09.06-.06,0,0,.09-.09v-.06h0l0-.06,0-.06,0,0,.06-.11,0-.12.06-.11v-.06l0,0v-.06l0-.06v-.09l0-.06v-.06l0-.14v-.43l0,0h0v-3.32h0V290l0-.06v-.26l0-.06v-.17l0-.09,0-.11v-.11l0-.12,0-.11-.06-.11,0-.09-.06-.11-.06-.09-.06-.09-.06-.06-.09-.09-.06-.06-.09-.09-.09-.06-.11-.06-.09,0-.11-.06Z"/><path class="c" d="M458.4,283.09l.32.37.11.17.14.2.14.17.11.2.12.17.09.2.11.2.09.2.11.2.09.23.09.23.11.23.09.23.09.26.09.23.09.26.06.26.06.23.06.26.06.26,0,.26,0,.26v.26l0,.26v.26l0,.29v.29l0,.26v.6l-.09,20.63v.52l0,.52,0,.26,0,.11v.14l0,.11V313l0,.12,0,.11,0,.11v.11l0,.12,0,.11,0,.11,0,0v.09l0,.11h0v.11l-.09.2-.09.2-.06.23-.09.2-.12.23-.09.23-.09.23-.12.23-.06.11-.06.12,0,.06,0,.06-.06.11-.06.09-.09.11,0,.06,0,.06-.06.12,0,0-.06.06-.06.09,0,.06,0,.06-.09.09-.06.06,0,.06-.06.09-.06.06,0,0-.09.09,0,.06-.06,0-.09.09,0,.06-.06.06-.09.09L458,318l-.14.17-.2.17-.17.14,0,0-.06.06-.09.06-.17.14-.12.09-.09.06-.09.09-.12.06-.09.06-.06,0-.06,0-.23.14-.11.06-.12.06-.23.11-.26.09-.11.06-.09,0-.06,0-.14.06-.11,0-.12.06-.14,0-.11,0-.11.06-.11,0-.09,0-.11,0h-.09l-.09,0-.09,0h-.09l-.09,0h-.09l-.06,0H453l-.17,0h-.17l-8.37.06h-.74l-.14,0h-.26l-.12,0h-.14l-.14,0h-.09l-.06,0h-.14l-.06,0h-.09l-.14,0-.14,0-.14,0-.14,0-.14,0-.11,0-.14,0-.14-.06-.11,0-.26-.09-.23-.11-.26-.09-.11-.06-.11-.06-.23-.11-.2-.14-.2-.11-.2-.14-.2-.14-.2-.14-.2-.14-.17-.14-.17-.17-.17-.14-.17-.17-.14-.14-.14-.17-.14-.14-.12-.14-.11-.17-.11-.17-.11-.17-.12-.17-.11-.17-.11-.2-.12-.2-.09-.2-.11-.2-.12-.23-.09-.23-.09-.23-.09-.2-.09-.26-.06-.23-.09-.23-.06-.26-.06-.23-.06-.23,0-.23-.06-.2,0-.2,0-.17,0-.17,0-.14,0-.14V312l0-.11v-.2l0-23,.06-.4.06-.37.06-.37.09-.34.06-.26.06-.26.06-.26.09-.23.09-.23.09-.26.11-.23.09-.23.12-.23.11-.23.11-.23.12-.2.11-.2.14-.17.11-.2.14-.17.12-.17.14-.17.14-.17.17-.14.17-.17.14-.17.17-.17.2-.14.2-.17.17-.14.2-.17.2-.11.17-.14.23-.12.17-.11.23-.09.2-.12.23-.09.2-.09.26-.09.23-.06.23-.09.26-.09.29-.06.23-.06.26,0,.26-.06.26,0,.26,0,.26,0,.26,0h8.6l.34,0,.17,0h.17l.17,0,.2,0,.2,0,.17,0,.23,0,.2.06.2.06.23.06.23.06.23.09.23.06.11.06.11,0,.23.12.09,0,.11.06.23.11.2.12.09.06.11.06.09.09.09.06.09.09.11.06.17.14.17.17.17.14.17.17.17.17.17.17.14.17Zm-5.79,4.73-.06-.06-.06,0-.12-.06-.09-.06-.11-.06-.14,0-.12,0-.06,0-.09,0h-.26q-1.58-.06-3.17-.06H445l-.09,0h-.09l-.09,0h-.23l-.09,0-.12,0-.11,0-.11,0-.11,0-.09,0-.11.06-.17.06-.09.06-.06.06-.09,0-.09.06-.06.06-.06.09-.06.09-.06.09-.06.09-.06.11-.11.23-.09.23,0,.12,0,.11-.06.14v.11l0,0v.6l0,.12v2.43l0,.26v16.85l0,.89V311l0,.26,0,.11,0,.14,0,.12.06.11,0,.11.06.11.06.12.06.11.06.09.06.12.09.09.09.09.09.09.09.09.09.06.11.09,0,0,.06,0,0,0,.06,0,.09,0,0,0h0l.06,0h0l.06,0H444v0h.8l6.42,0h.57l.11,0,.09,0,.11-.06.11,0,.11-.06.06,0,.06,0,.06-.06.06,0,.06-.06.06,0,0,0,.06-.06,0,0,.06-.06,0-.06.06,0,0-.06.06-.06,0-.06,0-.06.09-.12.06-.11.09-.23.06-.12,0,0v-.06l0-.06,0-.11,0-.06,0-.06,0-.12v-.11h0V311l0-.11v-.14l0-.12v-.72l0-.09V299.59l0-.43v-8.88l0-.29v-.26l0-.29,0-.12v-.14l-.06-.11,0-.11,0-.12-.06-.11-.06-.11-.06-.09-.09-.11-.09-.09-.06-.12-.09-.09-.09-.09-.09-.09-.11-.09Z"/><path class="c" d="M503.1,280.16l7.19-.06v40.17h-7.22L503,303.6v-.06l0-.09v-.09l0-.06v-.11l0-.06v-.06l0,0v0l0,0,0,0,0,0h-.06l-.06,0h0l-.06,0-.06,0-.06,0,0,.06-.06.06-.06.09-.06.12,0,.11-1.78,7.91h-6l-1.83-7.88-.06-.12,0-.06v-.06l-.06-.09,0-.06,0,0-.06,0,0,0-.06,0h-.06l-.09,0-.06,0,0,0,0,0,0,0,0,0v0l0,0v.09l0,.06v.06l0,.09v.09l0,.11.14,16.7h-7l-.14-40.08,7.31,0L497.23,298v.06l0,0v.06l0,.06v.06l0,.09,0,.06,0,.06,0,.06.06.06,0,0,.06,0h.06l.09,0h.14v0h.06l0,0,0,0,0,0,0,0v0l0-.06v-.06l.06-.09,0-.14,0-.06,0-.06Z"/><line class="b" x1="103.48" y1="425.42" x2="409.08" y2="425.42"/><line class="b" x1="103.48" y1="441.58" x2="409.08" y2="441.58"/></svg>